<svg xmlns="http://www.w3.org/2000/svg" width="132.791" height="34.013" viewBox="0 0 132.791 34.013"><g><path fill="#777878" d="M132.781 9.079l-.004-.99c-.024-.72-.067-1.441-.198-2.152-.123-.721-.338-1.393-.667-2.047-.332-.644-.759-1.234-1.271-1.743-.507-.509-1.097-.937-1.738-1.266-.66-.333-1.33-.549-2.052-.675-.706-.128-1.429-.171-2.149-.189l-.992-.014-1.164-.003h-112.296l-1.176.002-.988.014c-.716.019-1.44.062-2.154.19-.72.127-1.389.342-2.044.675-.644.329-1.232.758-1.74 1.267-.515.508-.941 1.098-1.267 1.742-.334.654-.547 1.326-.672 2.047-.13.711-.174 1.432-.193 2.152l-.016.99v15.859l.016.99c.018.721.063 1.442.193 2.153.125.721.338 1.395.672 2.047.326.641.752 1.231 1.266 1.736.509.513 1.096.941 1.741 1.266.655.337 1.324.549 2.044.679.714.129 1.438.171 2.154.191l.988.011 1.177.002h112.295l1.165-.002.992-.011c.72-.02 1.443-.062 2.149-.191.722-.13 1.392-.342 2.052-.679.642-.326 1.232-.753 1.738-1.266.512-.505.939-1.095 1.271-1.736.329-.652.543-1.326.667-2.047.131-.711.174-1.432.198-2.153l.004-.99c.01-.391.01-.779.01-1.177v-13.508c-.001-.393-.001-.784-.011-1.174z"/><path fill="#fff" d="M132.125 23.761c0 .392 0 .775-.009 1.177l-.005.97c-.018.621-.057 1.35-.187 2.06-.115.67-.313 1.279-.603 1.855-.304.585-.688 1.115-1.152 1.576-.458.459-.985.844-1.57 1.143-.569.29-1.181.491-1.865.615-.71.125-1.435.161-2.045.18l-.983.011-1.161.002h-112.295l-1.177-.002-.968-.011c-.617-.018-1.343-.054-2.058-.18-.682-.123-1.29-.325-1.858-.615-.58-.294-1.107-.681-1.575-1.149-.459-.455-.842-.982-1.142-1.567-.29-.571-.489-1.178-.611-1.865-.134-.736-.167-1.481-.181-2.053l-.013-.685-.004-.285v-15.849999999999998l.006-.298.013-.685c.014-.567.047-1.312.182-2.053.12-.685.319-1.292.611-1.862.298-.587.681-1.114 1.144-1.572.464-.464.992-.848 1.572-1.145.575-.292 1.184-.495 1.856-.614.73-.129 1.482-.162 2.05-.18l.977-.014 1.175-.003h112.295l1.159.003.054.002.924.012c.575.017 1.327.051 2.051.18.676.119 1.285.321 1.865.614.584.298 1.112.682 1.571 1.145.462.461.846.989 1.147 1.571.293.579.492 1.189.606 1.869.13.701.169 1.432.187 2.045l.005.989c.009.387.009.771.009 1.16v13.509z"/><g><linearGradient id="a" gradientUnits="userSpaceOnUse" x1="17.491" y1="5.811" x2="17.491" y2="28.204"><stop offset="0" stop-color="#F452FF"/><stop offset="1" stop-color="#832BC1"/></linearGradient><path fill-rule="evenodd" clip-rule="evenodd" fill="url(#a)" d="M28.244 25.22c-.218.553-.72 1.331-1.432 1.88-.411.317-.902.619-1.577.819-.719.213-1.604.285-2.706.285h-10.077c-1.102 0-1.987-.072-2.706-.285-.674-.2-1.165-.503-1.577-.819-.712-.548-1.215-1.327-1.432-1.88-.438-1.114-.443-2.378-.443-3.174v-10.077c0-.796.004-2.06.443-3.174.218-.553.72-1.331 1.432-1.88.411-.316.902-.619 1.577-.819.719-.213 1.604-.285 2.706-.285h10.077c1.102 0 1.987.072 2.706.285.674.2 1.165.503 1.577.819.712.548 1.215 1.327 1.432 1.88.438 1.114.443 2.378.443 3.174v10.077c0 .796-.004 2.06-.443 3.174z"/><path clip-rule="evenodd" d="M28.244 25.22c-.218.553-.72 1.331-1.432 1.88-.411.317-.902.619-1.577.819-.719.213-1.604.285-2.706.285h-10.077c-1.102 0-1.987-.072-2.706-.285-.674-.2-1.165-.503-1.577-.819-.712-.548-1.215-1.327-1.432-1.88-.438-1.114-.443-2.378-.443-3.174v-10.077c0-.796.004-2.06.443-3.174.218-.553.72-1.331 1.432-1.88.411-.316.902-.619 1.577-.819.719-.213 1.604-.285 2.706-.285h10.077c1.102 0 1.987.072 2.706.285.674.2 1.165.503 1.577.819.712.548 1.215 1.327 1.432 1.88.438 1.114.443 2.378.443 3.174v10.077c0 .796-.004 2.06-.443 3.174z" fill="none"/><path fill="#fff" d="M19.114 18.682c-.336-.354-.926-.582-1.623-.582s-1.287.227-1.623.582c-.175.185-.268.375-.297.645-.057.523-.025.974.036 1.694.058.686.169 1.601.314 2.534.103.663.187 1.021.263 1.278.123.415.585.779 1.307.779s1.183-.363 1.307-.779c.076-.256.16-.614.263-1.278.145-.932.256-1.847.314-2.534.061-.72.093-1.171.036-1.694-.028-.27-.121-.46-.297-.645zm-3.453-3.157c0 1.012.82 1.833 1.833 1.833s1.833-.82 1.833-1.833c0-1.012-.821-1.833-1.833-1.833s-1.833.821-1.833 1.833zm1.81-7.232c-4.286.012-7.798 3.489-7.851 7.775-.043 3.472 2.173 6.442 5.268 7.53.075.026.151-.036.14-.115l-.114-.807c-.012-.094-.072-.175-.159-.213-2.446-1.069-4.154-3.522-4.127-6.363.036-3.729 3.081-6.769 6.81-6.8 3.812-.031 6.924 3.062 6.924 6.867 0 2.813-1.701 5.236-4.128 6.296-.087.038-.147.119-.159.213l-.114.806c-.012.079.064.141.139.115 3.065-1.078 5.269-4.002 5.269-7.431-.001-4.348-3.546-7.886-7.898-7.873zm-.143 3.613c2.43-.094 4.436 1.855 4.436 4.264 0 1.225-.519 2.331-1.349 3.111-.07.066-.108.16-.103.256.016.293.01.578-.009.899-.005.086.091.14.162.092 1.391-.951 2.306-2.549 2.306-4.358 0-2.978-2.481-5.388-5.484-5.271-2.791.108-5.031 2.409-5.066 5.203-.023 1.837.897 3.464 2.306 4.427.071.048.167-.007.161-.092-.02-.322-.026-.607-.009-.9.005-.096-.032-.19-.103-.256-.856-.803-1.381-1.954-1.347-3.225.061-2.237 1.864-4.064 4.099-4.15z"/></g></g><path fill="#fff" d="M132.125 23.761c0 .392 0 .775-.009 1.177l-.005.97c-.018.621-.057 1.35-.187 2.06-.115.67-.313 1.279-.603 1.855-.304.585-.688 1.115-1.152 1.576-.458.459-.985.844-1.57 1.143-.569.29-1.181.491-1.865.615-.71.125-1.435.161-2.045.18l-.983.011-1.161.002h-112.295l-1.177-.002-.968-.011c-.617-.018-1.343-.054-2.058-.18-.682-.123-1.29-.325-1.858-.615-.58-.294-1.107-.681-1.575-1.149-.459-.455-.842-.982-1.142-1.567-.29-.571-.489-1.178-.611-1.865-.134-.736-.167-1.481-.181-2.053l-.013-.685-.004-.285v-15.849999999999998l.006-.298.013-.685c.014-.567.047-1.312.182-2.053.12-.685.319-1.292.611-1.862.298-.587.681-1.114 1.144-1.572.464-.464.992-.848 1.572-1.145.575-.292 1.184-.495 1.856-.614.73-.129 1.482-.162 2.05-.18l.977-.014 1.175-.003h112.295l1.159.003.054.002.924.012c.575.017 1.327.051 2.051.18.676.119 1.285.321 1.865.614.584.298 1.112.682 1.571 1.145.462.461.846.989 1.147 1.571.293.579.492 1.189.606 1.869.13.701.169 1.432.187 2.045l.005.989c.009.387.009.771.009 1.16v13.509z"/><g><g fill="#777878"><path d="M37.179 13.029h-3.917v-6.451h.805v5.727h3.112v.724zM38.158 7.114c0-.268.219-.483.483-.483.268 0 .487.215.487.483 0 .264-.219.483-.487.483-.264 0-.483-.219-.483-.483zm.094 1.265h.778v4.65h-.778v-4.65zM42.007 8.339c.957 0 1.677.563 1.704 1.337h-.742c-.045-.434-.42-.702-.988-.702-.563 0-.943.269-.943.667 0 .313.246.519.773.652l.72.174c.939.237 1.278.568 1.278 1.243 0 .8-.769 1.364-1.851 1.364-1.015 0-1.739-.545-1.811-1.359h.778c.076.474.456.724 1.082.724.626 0 1.02-.259 1.02-.67 0-.322-.192-.492-.715-.63l-.818-.21c-.818-.21-1.22-.622-1.22-1.248-.002-.788.714-1.342 1.733-1.342zM45.911 7.257v1.122h.903v.64h-.903v2.758c0 .425.179.617.577.617l.322-.022v.653c-.094.022-.309.036-.492.036-.854 0-1.185-.349-1.185-1.243v-2.799h-.693v-.64h.693v-1.122h.778zM51.627 11.697c-.129.805-.939 1.377-1.936 1.377-1.314 0-2.142-.908-2.142-2.352s.832-2.387 2.105-2.387c1.248 0 2.03.876 2.03 2.285v.295h-3.335v.045c0 .872.541 1.439 1.359 1.439.572 0 1.024-.273 1.153-.702h.766zm-3.272-1.39h2.526c-.018-.778-.514-1.296-1.238-1.296-.72-.001-1.239.522-1.288 1.296zM52.737 8.379h.733v.76h.018c.291-.532.755-.805 1.475-.805 1.02 0 1.61.657 1.61 1.712v2.982h-.778v-2.843c0-.751-.349-1.163-1.073-1.163-.751 0-1.207.523-1.207 1.31v2.696h-.778v-4.649zM59.751 10.705c0-1.449.84-2.37 2.155-2.37 1.31 0 2.15.921 2.15 2.37 0 1.444-.84 2.37-2.15 2.37-1.314-.001-2.155-.927-2.155-2.37zm3.514 0c0-1.06-.505-1.686-1.359-1.686-.858 0-1.364.63-1.364 1.686 0 1.06.51 1.686 1.364 1.686s1.359-.627 1.359-1.686zM65.108 8.379h.733v.76h.018c.291-.532.755-.805 1.475-.805 1.02 0 1.61.657 1.61 1.712v2.982h-.778v-2.843c0-.751-.349-1.163-1.073-1.163-.751 0-1.207.523-1.207 1.31v2.696h-.778v-4.649z"/></g><path d="M38.607 24.395h-3.651l-.876 2.589h-1.547l3.458-9.578h1.606l3.458 9.578h-1.573l-.875-2.589zm-3.272-1.194h2.894l-1.427-4.202h-.04l-1.427 4.202zM48.698 23.493c0 2.17-1.162 3.564-2.914 3.564-.996 0-1.785-.445-2.197-1.222h-.033v3.458h-1.434v-9.293h1.387v1.162h.026c.398-.75 1.248-1.234 2.224-1.234 1.772.001 2.941 1.401 2.941 3.565zm-1.474 0c0-1.414-.73-2.343-1.845-2.343-1.095 0-1.832.949-1.832 2.343 0 1.407.737 2.35 1.832 2.35 1.115 0 1.845-.923 1.845-2.35zM56.437 23.493c0 2.17-1.162 3.564-2.914 3.564-.996 0-1.785-.445-2.197-1.222h-.033v3.458h-1.434v-9.293h1.387v1.162h.026c.398-.75 1.248-1.234 2.224-1.234 1.772.001 2.941 1.401 2.941 3.565zm-1.474 0c0-1.414-.73-2.343-1.845-2.343-1.095 0-1.832.949-1.832 2.343 0 1.407.737 2.35 1.832 2.35 1.115 0 1.845-.923 1.845-2.35zM57.651 17.406h1.434v9.578h-1.434v-9.578zM66.841 24.934c-.192 1.268-1.427 2.137-3.007 2.137-2.031 0-3.292-1.361-3.292-3.544 0-2.19 1.268-3.611 3.232-3.611 1.932 0 3.146 1.327 3.146 3.445v.491h-4.932v.086c0 1.195.75 1.978 1.878 1.978.796 0 1.42-.378 1.613-.982h1.362zm-4.845-2.085h3.491c-.033-1.069-.717-1.772-1.712-1.772-.989 0-1.706.717-1.779 1.772zM75.093 17.406c1.858 0 3.153 1.281 3.153 3.146 0 1.872-1.321 3.159-3.199 3.159h-2.058v3.272h-1.487v-9.578h3.591zm-2.104 5.058h1.706c1.294 0 2.031-.697 2.031-1.905s-.737-1.898-2.024-1.898h-1.712v3.803zM78.918 23.493c0-2.197 1.294-3.578 3.312-3.578 2.024 0 3.312 1.38 3.312 3.578 0 2.204-1.281 3.578-3.312 3.578s-3.312-1.374-3.312-3.578zm5.164 0c0-1.507-.69-2.396-1.852-2.396s-1.852.896-1.852 2.396c0 1.513.69 2.396 1.852 2.396s1.852-.883 1.852-2.396zM86.535 23.493c0-2.157 1.188-3.564 2.92-3.564 1.002 0 1.792.464 2.19 1.234h.026v-3.757h1.44v9.578h-1.394v-1.188h-.026c-.412.796-1.208 1.261-2.224 1.261-1.744.001-2.932-1.407-2.932-3.564zm1.467 0c0 1.434.73 2.35 1.845 2.35 1.102 0 1.838-.929 1.838-2.35 0-1.407-.737-2.343-1.838-2.343-1.115 0-1.845.923-1.845 2.343zM99.333 22.404c-.126-.737-.704-1.288-1.646-1.288-1.102 0-1.832.923-1.832 2.376 0 1.487.737 2.383 1.845 2.383.89 0 1.474-.445 1.633-1.254h1.381c-.16 1.467-1.334 2.449-3.027 2.449-1.991 0-3.292-1.361-3.292-3.578 0-2.17 1.301-3.578 3.279-3.578 1.792 0 2.907 1.128 3.027 2.489h-1.368zM101.621 24.986c0-1.221.936-1.938 2.675-2.044l1.858-.106v-.531c0-.79-.524-1.214-1.434-1.214-.75 0-1.301.385-1.414.982h-1.341c.04-1.248 1.208-2.157 2.795-2.157 1.712 0 2.82.896 2.82 2.283v4.786h-1.373v-1.148h-.033c-.392.75-1.262 1.248-2.204 1.248-1.387-.001-2.349-.858-2.349-2.099zm4.533-.617v-.538l-1.673.106c-.929.053-1.42.412-1.42 1.016 0 .584.511.996 1.308.996 1.016 0 1.785-.677 1.785-1.58zM111.773 19.922c1.546 0 2.654.856 2.688 2.091h-1.347c-.061-.617-.584-.996-1.381-.996-.776 0-1.294.358-1.294.903 0 .418.345.697 1.068.876l1.175.272c1.407.338 1.938.856 1.938 1.878 0 1.261-1.195 2.124-2.901 2.124-1.646 0-2.754-.843-2.86-2.118h1.42c.1.67.638 1.029 1.507 1.029.856 0 1.395-.352 1.395-.909 0-.432-.266-.664-.996-.85l-1.248-.305c-1.261-.306-1.898-.949-1.898-1.918-.001-1.234 1.107-2.077 2.734-2.077zM117.791 18.349v1.652h1.327v1.135h-1.327v3.85c0 .598.266.876.85.876.146 0 .378-.02.471-.033v1.128c-.159.04-.478.066-.796.066-1.414 0-1.965-.531-1.965-1.885v-4.002h-1.016v-1.135h1.016v-1.652h1.44zM122.965 19.922c1.546 0 2.654.856 2.688 2.091h-1.347c-.061-.617-.584-.996-1.381-.996-.776 0-1.294.358-1.294.903 0 .418.345.697 1.068.876l1.175.272c1.407.338 1.938.856 1.938 1.878 0 1.261-1.195 2.124-2.901 2.124-1.646 0-2.754-.843-2.86-2.118h1.42c.1.67.638 1.029 1.507 1.029.856 0 1.395-.352 1.395-.909 0-.432-.266-.664-.996-.85l-1.248-.305c-1.261-.306-1.898-.949-1.898-1.918-.002-1.234 1.107-2.077 2.734-2.077z"/></g><g><linearGradient id="b" gradientUnits="userSpaceOnUse" x1="17.491" y1="5.811" x2="17.491" y2="28.204"><stop offset="0" stop-color="#F452FF"/><stop offset="1" stop-color="#832BC1"/></linearGradient><path fill-rule="evenodd" clip-rule="evenodd" fill="url(#b)" d="M28.244 25.22c-.218.553-.72 1.331-1.432 1.88-.411.317-.902.619-1.577.819-.719.213-1.604.285-2.706.285h-10.077c-1.102 0-1.987-.072-2.706-.285-.674-.2-1.165-.503-1.577-.819-.712-.548-1.215-1.327-1.432-1.88-.438-1.114-.443-2.378-.443-3.174v-10.077c0-.796.004-2.06.443-3.174.218-.553.72-1.331 1.432-1.88.411-.316.902-.619 1.577-.819.719-.213 1.604-.285 2.706-.285h10.077c1.102 0 1.987.072 2.706.285.674.2 1.165.503 1.577.819.712.548 1.215 1.327 1.432 1.88.438 1.114.443 2.378.443 3.174v10.077c0 .796-.004 2.06-.443 3.174z"/><path clip-rule="evenodd" d="M28.244 25.22c-.218.553-.72 1.331-1.432 1.88-.411.317-.902.619-1.577.819-.719.213-1.604.285-2.706.285h-10.077c-1.102 0-1.987-.072-2.706-.285-.674-.2-1.165-.503-1.577-.819-.712-.548-1.215-1.327-1.432-1.88-.438-1.114-.443-2.378-.443-3.174v-10.077c0-.796.004-2.06.443-3.174.218-.553.72-1.331 1.432-1.88.411-.316.902-.619 1.577-.819.719-.213 1.604-.285 2.706-.285h10.077c1.102 0 1.987.072 2.706.285.674.2 1.165.503 1.577.819.712.548 1.215 1.327 1.432 1.88.438 1.114.443 2.378.443 3.174v10.077c0 .796-.004 2.06-.443 3.174z" fill="none"/><path fill="#fff" d="M19.114 18.682c-.336-.354-.926-.582-1.623-.582s-1.287.227-1.623.582c-.175.185-.268.375-.297.645-.057.523-.025.974.036 1.694.058.686.169 1.601.314 2.534.103.663.187 1.021.263 1.278.123.415.585.779 1.307.779s1.183-.363 1.307-.779c.076-.256.16-.614.263-1.278.145-.932.256-1.847.314-2.534.061-.72.093-1.171.037-1.694-.029-.27-.122-.46-.298-.645zm-3.453-3.157c0 1.012.82 1.833 1.833 1.833s1.833-.82 1.833-1.833c0-1.012-.821-1.833-1.833-1.833s-1.833.821-1.833 1.833zm1.81-7.232c-4.286.012-7.798 3.489-7.851 7.775-.043 3.472 2.173 6.442 5.268 7.53.075.026.151-.036.14-.115l-.114-.807c-.012-.094-.072-.175-.159-.213-2.446-1.069-4.154-3.522-4.127-6.363.036-3.729 3.081-6.769 6.81-6.8 3.812-.031 6.924 3.062 6.924 6.867 0 2.813-1.701 5.236-4.128 6.296-.087.038-.147.119-.159.213l-.114.806c-.012.079.064.141.14.115 3.065-1.078 5.268-4.002 5.268-7.431-.001-4.348-3.546-7.886-7.898-7.873zm-.143 3.613c2.43-.094 4.436 1.855 4.436 4.264 0 1.225-.519 2.331-1.349 3.111-.07.066-.108.16-.103.256.016.293.01.578-.009.899-.005.086.091.14.162.092 1.391-.951 2.306-2.549 2.306-4.358 0-2.978-2.481-5.388-5.484-5.271-2.791.108-5.031 2.409-5.066 5.203-.023 1.837.897 3.464 2.306 4.427.071.048.167-.007.161-.092-.02-.322-.026-.607-.009-.9.005-.096-.032-.19-.103-.256-.856-.803-1.381-1.954-1.347-3.225.061-2.237 1.864-4.064 4.099-4.15z"/></g></svg>