<svg xmlns="http://www.w3.org/2000/svg" viewBox="0 0 600 190" enable-background="new 0 0 600 190"><style type="text/css">.st0{fill:#A6A6A6;} .st1{fill:#010101;} .st2{fill:#FCD902;} .st3{fill:#EE4424;} .st4{fill:#F04A25;} .st5{fill:#F78F20;} .st6{fill:#FCFCFC;} .st7{fill:#2FB3E7;} .st8{fill:#F04E27;} .st9{fill:#1FABE2;} .st10{fill:#24AEE4;} .st11{fill:#D8DC5E;} .st12{fill:#E3E466;} .st13{fill:#3EB9EB;} .st14{fill:#DDE062;} .st15{fill:#27B0E5;} .st16{fill:#52BEED;} .st17{fill:#D1D85A;} .st18{fill:#47BBEC;} .st19{fill:#36B6E9;} .st20{fill:#F0532A;} .st21{fill:#C6D053;} .st22{fill:#F1592D;} .st23{fill:#EF4124;} .st24{fill:#60C2EE;} .st25{fill:#C2CD50;} .st26{fill:#CED658;} .st27{fill:#CAD355;} .st28{fill:#6DC5EE;} .st29{fill:#EAE9E9;} .st30{fill:#76C7EE;} .st31{fill:#F15E30;} .st32{fill:#88CBEE;} .st33{fill:#7EC9EE;} .st34{fill:#95CEEF;} .st35{fill:#FFFFFF;} .st36{fill:#F4F3F3;} .st37{fill:#E3E2E1;}</style><path class="st0" d="M571.77 182h-547.35c-11.42 0-18.42-12.49-18.42-23.86v-133.24c0-11.36 7-16.9 18.42-16.9h547.35c11.37 0 22.23 5.54 22.23 16.9v133.24c0 11.37-10.86 23.86-22.23 23.86z"/><path class="st1" d="M588.5 158.15c0 9.229-7.481 16.71-16.71 16.71h-547.37c-9.24.011-16.739-7.47-16.75-16.71v-133.25c.011-9.243 7.507-16.73 16.75-16.73h547.35c9.24 0 16.73 7.49 16.73 16.73v133.25z"/><path class="st2" d="M77 124.47c-8.68 0-17.36 0-26 .09-1.3 0-1.07-.73-1.07-1.47v-60.02c0-.78 0-1.31 1.08-1.3 8.68.06 17.37.06 26 .08.475.609.681 1.386.57 2.15v58.27c.113.782-.096 1.576-.58 2.2z"/><path class="st3" d="M98.14 61.85h12.86c.47.65.08 1.27-.1 1.88-5.9 19.43-11.9 38.85-17.78 58.27-.127.932-.568 1.792-1.25 2.44h-5.64c-.392-.471-.576-1.081-.51-1.69v-22.92c.001-.337.045-.673.13-1 1.89-2.84 2.45-6.18 3.43-9.35 2.63-8.48 5.25-17 7.79-25.49.14-.803.512-1.546 1.07-2.14z"/><path class="st4" d="M91.87 124.46l19.13-62.61h10.23c.41.52.15 1.05 0 1.57-3.06 10.26-6.26 20.48-9.36 30.73-2.67 8.83-5.41 17.64-8.09 26.46-.41 1.34-.54 2.83-1.69 3.86l-10.22-.01z"/><path class="st5" d="M86.27 98.43v26h-9.27v-62.62h9.18c.503.595.722 1.38.6 2.15v32.23c.066.781-.112 1.564-.51 2.24z"/><path class="st6" d="M199.18 93.49v-48.16c0-1.52.25-2.09 1.93-2 3.29.15 3.29 0 3.29 3.42v95.16c0 1.39-.24 1.88-1.76 1.83-3.45-.13-3.46 0-3.46-3.56v-46.69z"/><path class="st7" d="M168.44 61.85h8.26c.45.67-.08 1.16-.37 1.64-7.19 12-14.35 24-21.62 36-4.65 7.65-9.21 15.35-13.83 23-.356.755-.856 1.434-1.47 2h-8.25c-.66-1 .18-1.67.59-2.36 4.367-7.333 8.74-14.633 13.12-21.9 7.173-11.96 14.35-23.917 21.53-35.87.54-.94.88-2.07 2.04-2.51z"/><path class="st8" d="M102.1 124.46l19.14-62.61h6.62c.494.608.588 1.448.24 2.15-.512.725-.885 1.539-1.1 2.4-3.86 12.78-7.81 25.54-11.7 38.31-1.76 5.78-3.58 11.55-5.28 17.35-.126.874-.47 1.703-1 2.41l-6.92-.01z"/><path class="st9" d="M127.81 64.11l.06-2.24h21.77c.5.85-.11 1.48-.48 2.1-6.553 10.853-13.093 21.713-19.62 32.58-.542.763-.854 1.665-.9 2.6 0 4.61-.06 9.22.05 13.83v5.64s.53 4-.49 5.84h-.31c-.74-.76-.57-1.74-.57-2.65v-16.76c0-7.48-.1-15 0-22.43.036-.549.036-1.101 0-1.65-.09-4.88 0-9.76 0-14.64-.071-.773.1-1.549.49-2.22z"/><path class="st10" d="M128.19 112.62v-13.84c.001-.651.192-1.287.55-1.83 6.753-11.133 13.487-22.28 20.2-33.44.276-.532.513-1.084.71-1.65h9.24c.47 1-.32 1.55-.7 2.2-7.333 12.26-14.667 24.517-22 36.77-2.09 3.49-4.17 7-6.29 10.45-.44.61-.69 1.46-1.71 1.34z"/><path class="st11" d="M251.24 96.45v9.9c-.459.412-1.083.589-1.69.48-5.19-.5-10.41-.71-15.6-1.13-3.773-.307-7.553-.56-11.34-.76-2-.1-3.93-.45-5.92-.39-.504.035-.999-.147-1.36-.5v-10.23c.55-.52 1.21-.38 1.87-.35 7.38.41 14.75 1.07 22.13 1.49 3.28.19 6.55.55 9.83.66.782-.043 1.543.261 2.08.83z"/><path class="st12" d="M251.24 115.92c0 2.52 0 5 .08 7.57 0 .82-.17 1.15-1.08 1.15h-33.92c-.74 0-1.09-.14-1.07-1 .06-3.46.06-6.91.08-10.37.533-.296 1.159-.378 1.75-.23 6.13.33 12.25.81 18.38 1.25 3.88.28 7.77.56 11.65.77 1.42.08 2.89.02 4.13.86z"/><path class="st13" d="M150 124.47h-6c-.28-.8.24-1.37.6-2 11.927-19.82 23.857-39.643 35.79-59.47.227-.44.544-.829.93-1.14h5.61c.49 1-.25 1.67-.67 2.37-9.16 15.18-18.303 30.377-27.43 45.59-2.94 4.89-5.83 9.84-8.83 14.65z"/><path class="st14" d="M251.24 115.92c-5.66-.43-11.31-.88-17-1.28-1.8-.13-3.6-.17-5.4-.33-4-.36-8.07-.48-12.1-.72-.488-.065-.969-.168-1.44-.31v-9.24c5.08 0 10.12.56 15.18 1 4 .31 8 .45 11.92.7 2.94.19 5.87.43 8.8.65.027 3.167.04 6.343.04 9.53z"/><path class="st15" d="M128.18 124.45v-5.89c3.56-5.29 6.67-10.87 10-16.33 8-13.233 15.947-26.48 23.84-39.74.142-.234.314-.449.51-.64h5.94c-3.253 5.393-6.507 10.783-9.76 16.17-7.14 11.833-14.257 23.667-21.35 35.5-2 3.29-3.93 6.58-5.92 9.86-.203.326-.304.706-.29 1.09l-2.97-.02z"/><path class="st16" d="M161.52 124.47h-6.61c-.51-1.18.37-2 .87-2.82 3.067-5.14 6.153-10.267 9.26-15.38 7-11.52 14-23 20.79-34.59.44-.74.65-2 2-1.63v10.9c-3.45 6.13-7.19 12.09-10.78 18.14-4.81 8.08-9.71 16.1-14.49 24.19-.208.499-.573.917-1.04 1.19z"/><path class="st17" d="M251.24 96.45l-8.31-.66-17-1.3c-1.58-.12-3.15-.09-4.74-.27-1.94-.22-3.93-.14-5.88-.41v-9.24c.509-.438 1.191-.619 1.85-.49 5.14.48 10.29.76 15.44 1.14 3.78.28 7.55.58 11.34.77 2 .1 3.93.45 5.92.39.504-.036.999.146 1.36.5l.02 9.57z"/><path class="st18" d="M187.88 70c-.91 0-1.12.86-1.45 1.42-3.58 6-7.08 12-10.66 17.9-5.84 9.7-11.73 19.36-17.56 29.07-1.18 2-2.61 3.8-3.29 6h-5c.23-1.89 1.55-3.24 2.46-4.77 8.853-14.773 17.727-29.55 26.62-44.33l7-11.51c.332-.625.625-1.27.88-1.93.78-.21 1.05.07 1 .89.01 2.43.02 4.87 0 7.26z"/><path class="st19" d="M181.31 61.85c-1.23 3.07-3.2 5.73-4.87 8.54-5.31 8.94-10.73 17.81-16.09 26.72-5.107 8.487-10.2 16.983-15.28 25.49-.37.61-.7 1.24-1 1.86h-4.67c1.373-2.796 2.93-5.499 4.66-8.09 6.627-11.087 13.273-22.16 19.94-33.22 4.12-6.853 8.233-13.707 12.34-20.56.121-.239.225-.486.31-.74h4.66z"/><path class="st20" d="M127.81 64.11v16.84c-1.93 6.24-3.8 12.49-5.71 18.73-2.447 8-4.883 15.977-7.31 23.93-.084.318-.246.61-.47.85h-5.32c.39-2.389 1.016-4.734 1.87-7 3.54-11.7 7.17-23.37 10.75-35.05 1.7-5.55 3.35-11.12 5-16.67.28-.6.26-1.45 1.19-1.63z"/><path class="st21" d="M215.34 74.34v-7.92c1.712-.359 3.477-.389 5.2-.09 5.74.44 11.49.82 17.23 1.21 3.67.25 7.33.58 11 .75.89-.052 1.767.222 2.47.77v7.59c-.509.438-1.191.619-1.85.49-5.25-.49-10.51-.77-15.77-1.15s-10.73-.77-16.1-1.11c-.769.101-1.547-.092-2.18-.54z"/><path class="st22" d="M114.32 124.46c-.08-2.09.94-3.92 1.51-5.84 3-9.95 6.06-19.85 9.1-29.77.59-1.93 1.13-3.88 1.74-5.8.24-.76.34-1.64 1.15-2.1v24.09c-1.61 5.73-3.5 11.37-5.16 17.08-.123.87-.495 1.686-1.07 2.35l-7.27-.01z"/><path class="st23" d="M86.27 98.43v-36.58h11.87c-1.25 4.25-2.49 8.5-3.77 12.74l-6.79 22.3c-.151.7-.643 1.278-1.31 1.54z"/><path class="st24" d="M161.52 124.47c4.17-7.53 8.79-14.78 13.16-22.19 3.76-6.36 7.6-12.68 11.41-19 .39-.91 1.002-1.707 1.78-2.32v9.57c-2.47 4.73-5.38 9.2-8.11 13.78-3.687 6.187-7.39 12.36-11.11 18.52-.299.717-.845 1.302-1.54 1.65l-5.59-.01z"/><path class="st15" d="M162.5 61.85c-.26 1.94-1.62 3.33-2.56 4.9-6.77 11.39-13.62 22.74-20.44 34.1-3.333 5.587-6.667 11.18-10 16.78-.224.517-.71.872-1.27.93v-5.94c1.78-1.69 2.7-4 3.93-6 8.56-14.173 17.083-28.38 25.57-42.62.42-.7.76-1.44 1.14-2.16l3.63.01z"/><path class="st25" d="M251.24 69.06l-16.64-1.28c-1.85-.14-3.7-.13-5.56-.31-4-.4-8.07-.49-12.1-.73-.54-.069-1.075-.176-1.6-.32-.28-4.4-.28-4.4 4-4.4h30.35c1.29 0 1.72.32 1.63 1.63-.12 1.78-.06 3.6-.08 5.41z"/><path class="st26" d="M251.24 86.88c-6.6-.11-13.17-.77-19.74-1.29-3.8-.3-7.62-.5-11.43-.67-1.58-.07-3.13-.56-4.73-.34v-5.28c.55-.52 1.21-.38 1.87-.34 7.38.42 14.74 1.07 22.11 1.49 3.28.19 6.55.51 9.83.68.78-.021 1.536.27 2.1.81-.007 1.64-.01 3.287-.01 4.94z"/><path class="st27" d="M251.24 81.93c-4.84-.45-9.69-.7-14.53-1-6.31-.44-12.62-1-18.94-1.29-.797-.186-1.612-.29-2.43-.31v-5c5 .06 9.9.54 14.85 1 4 .33 7.95.45 11.92.7 3 .19 6.09.43 9.13.65v5.25z"/><path class="st28" d="M167.13 124.47l10.74-17.84c3-5.06 6.05-10.14 9.1-15.19.266-.342.571-.65.91-.92v8.58c-4.4 7.26-8.74 14.56-13.15 21.81-.61 1.288-1.394 2.485-2.33 3.56h-5.27z"/><path class="st29" d="M195.13 93v-30.68s.12-.52.48-.51.69 0 .71.46v61.54s-.05.75-.6.77-.63-.29-.61-.72v-1.15c.013-9.92.02-19.823.02-29.71zM207.54 93.16v-30.68s.17-.69.67-.69.54.4.54.79v61.37s-.11.63-.55.62-.64-.11-.65-.54v-1.32c-.007-9.86-.01-19.71-.01-29.55z"/><path class="st30" d="M172.4 124.47c1.25-3.11 3.26-5.79 4.94-8.66l9-15c.348-.682.86-1.266 1.49-1.7v4.89c-3.76 6.42-7.67 12.76-11.46 19.17-.252.479-.591.906-1 1.26l-2.97.04z"/><path class="st31" d="M121.58 124.46c.88-4 2.29-7.75 3.4-11.64.61-2.16 1.34-4.28 2-6.42.16-.5.19-1.11.8-1.37l.06 19.41-6.26.02z"/><path class="st32" d="M183 124.47h-4.62c-.52-.61-.14-1.14.17-1.65 2.567-4.34 5.16-8.673 7.78-13 .35-.57.67-1.32 1.59-1.19v7.59c-1.455 2.856-3.099 5.612-4.92 8.25z"/><path class="st33" d="M187.88 108.67c-1.49 1.22-2.14 3-3.11 4.59-2.06 3.36-4.08 6.75-6.13 10.12-.204.326-.305.706-.29 1.09h-3c1.13-2.74 2.92-5.11 4.38-7.66 2.22-3.89 4.58-7.7 6.91-11.53.29-.48.5-1.13 1.22-1.23l.02 4.62z"/><path class="st34" d="M183 124.47c1.233-2.959 2.887-5.724 4.91-8.21 0 2.45 0 4.9.08 7.35 0 .7-.18 1-.91.94-1.39-.07-2.76-.06-4.08-.08z"/><path class="st35" d="M449.39 114.39v-16c0-.85.22-1.09 1.07-1.06 1.87.07 3.74.07 5.6 0 .9 0 1.18.2 1.16 1.14-.06 3.65 0 7.31 0 11 0 .78.18 1 1 1 4.267-.04 8.53-.04 12.79 0 .79 0 .92-.24.92-1v-11.09c0-.84.19-1.1 1.06-1.07 1.95.07 3.9 0 5.85 0 .69 0 .9.2.9.9v32.28c0 .75-.21 1-1 1-1.95 0-3.9-.06-5.85 0-.8 0-1-.21-1-1v-12.06c0-.81-.23-1-1-1h-12.67c-.9 0-1 .29-1 1.1v11.82c0 .93-.25 1.18-1.16 1.14-1.87-.07-3.74-.07-5.6 0-.84 0-1.08-.19-1.08-1.06.03-5.32.01-10.68.01-16.04zM488.7 114.46v-15.84c0-.9.14-1.26 1.17-1.25 7.027.053 14.053.053 21.08 0 1 0 1.16.3 1.12 1.18-.07 1.5-.07 3 0 4.51 0 .9-.19 1.18-1.13 1.17-4.43-.05-8.86 0-13.28 0-.95 0-1.25.23-1.2 1.19.076 1.502.076 3.008 0 4.51 0 .78.23.94 1 .93h10c.91 0 1.2.23 1.15 1.15-.08 1.5-.06 3 0 4.51 0 .76-.23 1-1 1h-10.11c-.78 0-1.05.18-1 1 .07 1.74.08 3.5 0 5.24 0 .9.28 1 1.09 1h14.5c.93 0 1.19.25 1.14 1.16-.079 1.502-.079 3.008 0 4.51.06 1-.22 1.3-1.25 1.29-6.13-.05-12.27 0-18.4 0-1.26 0-2.52-.05-3.78 0-.88.05-1.07-.28-1.07-1.1-.01-5.52-.03-10.84-.03-16.16zM314.25 106c-1.824-1.642-4.106-2.689-6.54-3-1.175-.136-2.364.099-3.4.67-2.29 1.3-2.35 3.7-.12 5.12 1.553.891 3.242 1.52 5 1.86 3.15.78 6.16 1.85 8.26 4.5 3.462 4.388 2.711 10.752-1.677 14.213-.366.288-.751.551-1.153.787-4.48 2.74-9.29 2.73-14.19 1.34-2.737-.786-5.231-2.251-7.25-4.26-.44-.42-.47-.66 0-1.12 1.333-1.367 2.62-2.773 3.86-4.22.48-.55.74-.49 1.23 0 1.97 2.013 4.579 3.279 7.38 3.58 1.38.151 2.77-.173 3.94-.92 1.533-.799 2.128-2.689 1.329-4.222-.321-.616-.838-1.108-1.469-1.398-1.893-.986-3.912-1.709-6-2.15-3.28-.87-6.15-2.36-7.79-5.49-2.465-4.781-.587-10.655 4.194-13.12.336-.173.682-.327 1.036-.46 6.07-2.31 11.92-1.62 17.11 2.62.66.54.79.93.12 1.61-1.38 1.3-2.6 2.72-3.87 4.06zM429.23 96.53c4.933-.05 9.625 2.129 12.77 5.93.51.62.56 1-.08 1.53-1.33 1.19-2.59 2.46-3.85 3.73-.51.52-.8.64-1.36-.06-3.211-4.378-9.363-5.323-13.74-2.113-2.255 1.654-3.698 4.19-3.97 6.973-.39 3.51.15 6.81 2.66 9.49 3.908 3.908 10.219 3.993 14.23.19.6-.58 1.1-1.68 1.79-1.62s1.29 1 1.93 1.58c.9.81 1.76 1.69 2.71 2.44.75.58.38 1 0 1.44-4.063 4.751-10.288 7.071-16.47 6.14-7.51-1-12.83-5.68-14.48-13-1.81-8.09 1.09-16.56 8.66-20.58 2.849-1.439 6.009-2.15 9.2-2.07zM393 97.39h13.76c1 0 1.24.29 1.19 1.23-.07 1.54-.07 3.09 0 4.63 0 .84-.2 1.11-1.07 1.09-3-.06-5.93 0-8.89 0-.88 0-1.05.24-1.05 1.08v24.85c0 1.08-.26 1.4-1.34 1.34-1.742-.091-3.488-.091-5.23 0-1 0-1.28-.19-1.27-1.23.05-8.12 0-16.24 0-24.36 0-1.64 0-1.64-1.68-1.64h-8.28c-.81 0-1.16-.15-1.12-1.05.07-1.62.06-3.25 0-4.87 0-.8.23-1 1-1 4.72-.05 9.35-.07 13.98-.07zM340 97.39h13.88c.8 0 1 .21 1 1-.06 1.66-.06 3.33 0 5 0 .74-.17 1-.94.95h-9c-.86 0-1.06.22-1.06 1.07v25c0 1.06-.3 1.27-1.28 1.22-1.785-.093-3.575-.093-5.36 0-1.07.06-1.22-.32-1.22-1.28v-24.72c0-1-.2-1.29-1.24-1.26-2.92.08-5.85 0-8.77 0-.76 0-1.07-.14-1-1 .07-1.66.08-3.33 0-5 0-.87.32-1 1-1 4.69.03 9.32.02 13.99.02zM370.45 114.51v16c0 .87-.24 1.08-1.08 1.05-1.87-.06-3.74 0-5.6 0-.75 0-1.05-.14-1.05-1v-32.17c0-.85.3-1 1.05-1 1.87 0 3.74.06 5.6 0 .84 0 1.09.19 1.08 1.06-.02 5.34 0 10.7 0 16.06z"/><path class="st36" d="M554.5 99v3.36c0 .29 0 .59-.42.55s-.31-.41-.31-.65v-4c0-.27-.22-.71.34-.74s.75 0 .93.51c.42 1.26.94 2.48 1.5 3.89l1.39-3.75c.15-.39.31-.72.85-.67s.46.56.47.91v3.9c0 .26.08.62-.37.6s-.34-.37-.35-.63c.027-1.028-.047-2.056-.22-3.07-.37.94-.72 1.88-1.1 2.81-.14.35-.09.86-.64.9s-.61-.58-.76-.94c-.42-1-.76-2-1.13-3l-.18.02z"/><path class="st37" d="M549.89 100.54c-.028-.446-.028-.894 0-1.34.1-.83-.16-1.21-1-1.08-.28 0-.74.13-.69-.39s.45-.25.69-.25h3.17c.23 0 .53 0 .52.32s-.3.37-.53.33c-1.3-.26-1.34.52-1.29 1.47v2.68c0 .28 0 .59-.38.62s-.46-.33-.46-.65c-.04-.57-.03-1.14-.03-1.71z"/><path class="st35" d="M539.64 118.7c-.33-.59-.37-.87.29-1.32 4.129-2.806 5.89-8.014 4.31-12.75-1.25-4.14-5.26-7-10.12-7.13-4.34-.1-8.68-.06-13-.12-.78 0-1 .17-1 1v32.03c0 .75 0 1.18 1 1.13 1.86-.09 3.74-.07 5.6 0 .88 0 1-.34 1-1.07v-8.4c0-1-.46-2.32.22-2.9s1.86-.09 2.82-.19c.769-.127 1.513.341 1.73 1.09 1.71 3.52 3.5 7 5.28 10.5.22.44.33 1 1.07 1h8c-2.54-4.48-4.84-8.68-7.2-12.87zm-6.4-6.07c-1.65.17-3.32.07-5 .12-.62 0-.61-.35-.61-.78v-7.4399999999999995c0-.6.18-.76.76-.74h4.51c2.257.055 4.045 1.923 4 4.18.1 2.56-1.31 4.43-3.67 4.67l.01-.01zM295.83 52.58h5.24v24.31h11.8v4.39h-17l-.04-28.7zM322.19 54.75c.05 1.623-1.226 2.979-2.849 3.029-1.623.05-2.979-1.226-3.029-2.849-.05-1.623 1.226-2.979 2.849-3.029l.089-.001c1.544-.078 2.859 1.112 2.937 2.656l.003.194zm-5.58 26.53v-20.74h5.24v20.74h-5.24zM327.3 76.43c1.605.949 3.418 1.488 5.28 1.57 2.3 0 3.32-1 3.32-2.34s-.85-2.09-3.41-3c-4-1.36-5.71-3.58-5.71-6 0-3.66 3-6.47 7.84-6.47 1.918-.039 3.818.383 5.54 1.23l-1.06 3.58c-1.34-.759-2.85-1.168-4.39-1.19-1.87 0-2.9.94-2.9 2.21s1 1.92 3.62 2.9c3.79 1.32 5.49 3.24 5.54 6.3 0 3.79-2.94 6.52-8.43 6.52-2.187.039-4.35-.459-6.3-1.45l1.06-3.86zM351.28 55.22v5.32h5v3.92h-5v9.16c0 2.56.68 3.83 2.68 3.83.673.029 1.347-.042 2-.21l.08 4c-1.224.394-2.505.58-3.79.55-1.675.089-3.31-.528-4.51-1.7-1.15-1.19-1.66-3.11-1.66-5.83v-9.8h-2.94v-3.92h2.94v-3.87l5.2-1.45zM363.67 72.38c.13 3.75 3 5.37 6.39 5.37 1.957.026 3.903-.292 5.75-.94l.77 3.58c-2.302.917-4.763 1.366-7.24 1.32-6.73 0-10.69-4.13-10.69-10.48 0-5.75 3.49-11.16 10.14-11.16s8.94 5.54 8.94 10.09c.007.74-.05 1.48-.17 2.21l-13.89.01zm9.11-3.66c0-1.92-.81-5.07-4.3-5.07-3.24 0-4.6 2.94-4.81 5.07h9.11zM381.94 66.72c0-2.38-.08-4.39-.17-6.18h4.56l.26 3.11h.13c1.426-2.282 3.95-3.643 6.64-3.58 3.62 0 7.37 2.34 7.37 8.9v12.31h-5.24v-11.71c0-3-1.11-5.24-4-5.24-1.879.045-3.522 1.278-4.09 3.07-.183.534-.271 1.096-.26 1.66v12.22h-5.24l.04-14.56zM434.83 70.72c0 7.62-5.37 11-10.65 11-5.83 0-10.39-4-10.39-10.69s4.47-11 10.73-11 10.31 4.39 10.31 10.69zm-15.63.21c0 4 2 7 5.15 7 3 0 5.07-2.9 5.07-7.11 0-3.24-1.45-7-5-7s-5.21 3.66-5.21 7.11h-.01zM439.14 66.72c0-2.38-.08-4.39-.17-6.18h4.56l.26 3.11h.13c1.426-2.282 3.95-3.643 6.64-3.58 3.62 0 7.37 2.34 7.37 8.9v12.31h-5.24v-11.71c0-3-1.11-5.24-4-5.24-1.879.045-3.522 1.278-4.09 3.07-.183.534-.271 1.096-.26 1.66v12.22h-5.24l.04-14.56z"/></svg>