<svg width="100" height="100" viewBox="0 0 100 100" xmlns="http://www.w3.org/2000/svg" xmlns:sketch="http://www.bohemiancoding.com/sketch/ns"><title>account-manager</title><desc>Created with Sketch.</desc><path d="M33.018 75.108c.236-.135.455-.27.658-.405 2.091-1.349 4.217-2.547 6.376-3.593 2.159-1.046 4.318-1.973 6.477-2.783-.877-1.214-1.653-2.496-2.328-3.846-.675-1.349-1.214-2.732-1.619-4.149-.742-.607-1.383-1.316-1.923-2.125-.54-.81-1.046-1.687-1.518-2.631-.337-1.079-.557-2.159-.658-3.238-.101-1.079-.084-2.193.051-3.34.067-.742.202-1.467.405-2.176.202-.708.506-1.366.911-1.973-.472-4.116-.32-7.725.455-10.828.776-3.103 2.142-5.735 4.099-7.894 1.147-1.214 2.395-2.26 3.744-3.137 1.349-.877 2.834-1.585 4.453-2.125-.405-4.318-1.889-7.708-4.453-10.171-2.564-2.463-6.173-3.694-10.828-3.694-1.147 0-2.226.067-3.238.202s-1.99.337-2.935.607c-.877.27-1.809.92-2.471 1.407-.663.487-1.359 1.072-1.899 1.477s-.926 1.012-1.398 1.518c-.472.506-.877 1.063-1.214 1.67-.405.675-.742 1.299-1.012 1.872-.27.573-.472 1.13-.607 1.67-.135.472-.253 1.029-.354 1.67-.101.641-.186 1.299-.253 1.973-.067.675-.118 1.299-.152 1.872-.034.573-.017 1.063.051 1.467 0 .405.034.978.101 1.72s.135 1.653.202 2.732c-.675.607-1.13 1.4-1.366 2.378-.236.978-.186 2.108.152 3.39.27 1.282.658 2.243 1.164 2.884.506.641 1.164.961 1.973.961.202 1.079.489 2.125.86 3.137s.826 2.024 1.366 3.036c.472.945.945 1.788 1.417 2.53.472.742.911 1.316 1.316 1.72.337.472.624.826.86 1.063.236.236.388.354.455.354 0 1.619-.152 2.85-.455 3.694-.304.843-.793 1.299-1.467 1.366-2.024.337-4.385 1.113-7.084 2.328-2.699 1.214-5.768 2.867-9.209 4.959-3.373 2.159-5.903 4.47-7.59 6.932-1.687 2.463-2.53 4.773-2.53 6.932h29.317s1.465-1.282 1.701-1.417zm52.978 5.262c-3.441-2.091-6.511-3.761-9.209-5.009-2.699-1.248-5.06-2.041-7.084-2.378-.675-.067-1.164-.523-1.467-1.366-.304-.843-.455-2.075-.455-3.694 1.687-1.687 3.053-3.508 4.099-5.465 1.046-1.957 1.771-4.048 2.176-6.274.81 0 1.467-.32 1.973-.961s.894-1.602 1.164-2.884c.337-1.349.388-2.496.152-3.441-.236-.945-.692-1.754-1.366-2.429.067-1.012.135-1.889.202-2.631.067-.742.101-1.316.101-1.72.067-.472.084-.978.051-1.518-.034-.54-.084-1.147-.152-1.822-.067-.742-.152-1.417-.253-2.024s-.219-1.181-.354-1.72c-.135-.54-.337-1.096-.607-1.67-.27-.573-.607-1.164-1.012-1.771-.337-.607-.742-1.181-1.214-1.72-.472-.54-.978-.978-1.518-1.316-.54-.405-1.164-.776-1.872-1.113-.708-.337-1.501-.641-2.378-.911-.945-.27-1.923-.472-2.935-.607s-2.091-.202-3.238-.202c-1.079 0-2.125.067-3.137.202s-1.99.337-2.935.607c-.877.27-1.687.573-2.429.911-.742.337-1.349.708-1.822 1.113-.54.337-1.046.776-1.518 1.316s-.877 1.113-1.214 1.72c-.405.607-.742 1.198-1.012 1.771s-.472 1.13-.607 1.67-.253 1.113-.354 1.72c-.101.607-.186 1.282-.253 2.024-.067.675-.118 1.299-.152 1.872-.034.573-.017 1.063.051 1.467 0 .405.034.978.101 1.72s.135 1.619.202 2.631c-.742.675-1.214 1.484-1.417 2.429-.202.945-.169 2.091.101 3.441.27 1.282.675 2.243 1.214 2.884.54.641 1.181.961 1.923.961.27 1.079.573 2.125.911 3.137.337 1.012.742 1.99 1.214 2.935.472 1.012.961 1.889 1.467 2.631.506.742.995 1.349 1.467 1.822l1.316 1.214c0 1.619-.169 2.85-.506 3.694-.337.843-.81 1.299-1.417 1.366-2.024.337-4.402 1.13-7.135 2.378-2.732 1.248-5.785 2.918-9.159 5.009-3.373 2.091-5.92 4.031-7.641 5.819-1.72 1.788-2.581 3.761-2.581 5.92h70.638c0-2.159-.843-4.132-2.53-5.92-1.687-1.788-4.217-3.728-7.59-5.819z" sketch:type="MSShapeGroup" stroke="#fff" stroke-width="2" fill="none"/></svg>