<svg width="100" height="100" viewBox="0 0 100 100" xmlns="http://www.w3.org/2000/svg" xmlns:sketch="http://www.bohemiancoding.com/sketch/ns"><title>export</title><desc>Created with Sketch.</desc><g sketch:type="MSLayerGroup" transform="translate(-138 -284) translate(145 293)" fill="none"><path d="M76.748 13.2l-13.658 14.994c-.46-.486-.988-.907-1.57-1.246l13.6-14.93c.481.468 1.029.867 1.628 1.182zm-25.513 21.603l-24.285 3.044c.033-.278.051-.56.051-.847 0-.396-.033-.785-.096-1.163l24.099-3.021-.002.184c0 .623.081 1.228.234 1.803zm-41.287 33.846l8.444-24.835c-.662-.156-1.288-.405-1.863-.734l-8.499 24.995c.675.1 1.319.296 1.917.574z" fill="#fff" sketch:type="MSShapeGroup"/><circle id="Oval-11" stroke="#fff" stroke-width="2" sketch:type="MSShapeGroup" cx="20" cy="37" r="7"/><circle id="Oval-11" stroke="#fff" stroke-width="2" sketch:type="MSShapeGroup" cx="7" cy="75" r="7"/><circle id="Oval-11" stroke="#fff" stroke-width="2" sketch:type="MSShapeGroup" cx="58" cy="33" r="7"/><circle stroke="#fff" stroke-width="2" sketch:type="MSShapeGroup" cx="80" cy="7" r="7"/></g></svg>