<svg width="100" height="100" viewBox="0 0 100 100" xmlns="http://www.w3.org/2000/svg" xmlns:sketch="http://www.bohemiancoding.com/sketch/ns"><title>export</title><desc>Created with Sketch.</desc><g sketch:type="MSLayerGroup" stroke="#fff" stroke-width="2" fill="none"><path d="M69.55 66.953c.36 3.957 2.878 23.672 3.417 27.269h-32.463l.54-19.669h-.989c-4.047.45-7.014-.27-9.172-2.068-2.068-1.799-3.147-4.586-3.237-8.363l-.45-6.565c-3.237-.18-8.374.594-8.014-.935-.36-2.623 4.687-13.993 6.216-16.601.18-.27.27-.629.18-.899-.36-2.068-.54-4.227-.45-6.295.36-7.104 3.417-13.759 8.723-18.615 5.306-4.856 12.05-7.464 19.244-7.194 7.464.18 14.298 3.327 19.424 8.813 5.126 5.486 7.734 12.59 7.464 19.964-.27 7.464-3.507 17.388-9.083 22.334-.45.629-1.709 5.047-1.349 8.824z" sketch:type="MSShapeGroup"/><path d="M39 42c2.209 0 4-1.791 4-4s-1.791-4-4-4-4 1.791-4 4 1.791 4 4 4z" sketch:type="MSShapeGroup"/></g></svg>