<svg width="100" height="100" viewBox="0 0 100 100" xmlns="http://www.w3.org/2000/svg" xmlns:sketch="http://www.bohemiancoding.com/sketch/ns"><title>export</title><desc>Created with Sketch.</desc><g sketch:type="MSLayerGroup" transform="translate(-138 -284) translate(143 293)" stroke="#fff" stroke-width="2" fill="none"><path d="M13.402 50.084c-.264-1.656-.402-3.354-.402-5.084 0-12.29 6.929-22.962 17.093-28.323.834 7.495 7.19 13.323 14.907 13.323s14.073-5.828 14.907-13.323c10.164 5.361 17.093 16.033 17.093 28.323 0 1.361-.085 2.702-.25 4.018-.248-.012-.499-.018-.75-.018-8.284 0-15 6.716-15 15 0 2.719.724 5.27 1.989 7.469-5.126 3.491-11.319 5.531-17.989 5.531-6.181 0-11.952-1.752-16.845-4.787 1.176-2.14 1.845-4.598 1.845-7.213 0-8.284-6.716-15-15-15-.54 0-1.073.029-1.598.084z" sketch:type="MSShapeGroup"/><circle id="Oval-5" sketch:type="MSShapeGroup" cx="45" cy="15" r="15"/><circle id="Oval-5" sketch:type="MSShapeGroup" cx="76" cy="64" r="15"/><circle sketch:type="MSShapeGroup" cx="15" cy="65" r="15"/></g></svg>