<svg width="100" height="100" viewBox="0 0 100 100" xmlns="http://www.w3.org/2000/svg" xmlns:sketch="http://www.bohemiancoding.com/sketch/ns"><title>export</title><desc>Created with Sketch.</desc><g sketch:type="MSLayerGroup" stroke="#fff" stroke-width="2" fill="none"><path d="M6.004 16.3c.724 4.909 5.493 8.7 11.268 8.7 5.168 0 9.53-3.035 10.909-7.191 1.379 4.155 5.741 7.191 10.909 7.191 5.168 0 9.53-3.035 10.909-7.191 1.379 4.155 5.741 7.191 10.909 7.191 5.168 0 9.53-3.035 10.909-7.191 1.379 4.155 5.741 7.191 10.909 7.191 5.744 0 10.493-3.751 11.256-8.621-.636-.592-1.381-1.102-2.225-1.379h-83.833c-.513 0-1.26.622-1.921 1.3z" sketch:type="MSShapeGroup"/><g sketch:type="MSShapeGroup"><path d="M33.182 23c-10 35-29.713 36.508-27.273 38 7.553 4.618 10.909 18 10.909 23"/><path d="M18.636 24c-1.818 6-5.455 16-13.636 21"/><path d="M65.672 23c10 35 30.622 36.508 28.182 38-7.553 4.618-10.909 18-10.909 23"/><path d="M5 19.002c0-2.21 1.62-4.002 3.598-4.002h82.805c1.987 0 3.598 1.801 3.598 4.002v61.996c0 2.21-1.62 4.002-3.598 4.002h-82.805c-1.987 0-3.598-1.801-3.598-4.002v-61.996z"/><path d="M81.364 24c1.818 6 5.455 16 13.636 21"/></g></g></svg>