<svg width="100" height="100" viewBox="0 0 100 100" xmlns="http://www.w3.org/2000/svg" xmlns:sketch="http://www.bohemiancoding.com/sketch/ns"><title>export</title><desc>Created with Sketch.</desc><g sketch:type="MSLayerGroup" transform="translate(-138 -284) translate(138 285)" stroke="#fff" stroke-width="2" fill="none"><path d="M59.551 15.319c-11.022-.782-26.644-.516-36.623.291l.915-.103c-10.971 1.318-20.973 11.366-22.367 22.311l.14-1.232c-1.125 10.996-.878 28.84.032 39.838l-.143-1.263c1.321 10.96 11.376 20.928 22.329 22.27l.552.06c10.994 1.055 28.845.749 39.835-.188l-2.065.24c10.971-1.344 20.926-11.423 22.26-22.378l.062-.567c.926-9.606.798-24.46.106-35.386-1.772.514-3.645.789-5.582.789-11.046 0-20-8.954-20-20 0-1.612.191-3.179.551-4.681z" sketch:type="MSShapeGroup"/><circle sketch:type="MSShapeGroup" cx="79" cy="20" r="20"/></g></svg>