<svg width="100" height="100" viewBox="0 0 100 100" xmlns="http://www.w3.org/2000/svg" xmlns:sketch="http://www.bohemiancoding.com/sketch/ns"><title>export</title><desc>Created with Sketch.</desc><path d="M84.766 25.781c2.083-1.302 3.809-2.783 5.176-4.443 1.367-1.66 2.441-3.695 3.223-6.104-1.823 1.042-3.776 1.969-5.859 2.783-2.083.814-4.167 1.481-6.25 2.002-1.823-2.148-3.906-3.646-6.25-4.492-2.344-.846-4.818-1.27-7.422-1.27-2.669 0-5.078.505-7.227 1.514-2.148 1.009-4.134 2.425-5.957 4.248-1.823 1.563-3.239 3.402-4.248 5.518-1.009 2.116-1.514 4.476-1.514 7.08 0 .781.016 1.481.049 2.1.033.618.179 1.318.439 2.1-3.906-.26-7.617-.83-11.133-1.709-3.516-.879-6.999-2.23-10.449-4.053-3.385-1.563-6.527-3.516-9.424-5.859-2.897-2.344-5.55-4.948-7.959-7.813-.781 1.302-1.416 2.751-1.904 4.346-.488 1.595-.732 3.304-.732 5.127 0 1.563.163 3.109.488 4.639.326 1.53.879 2.946 1.66 4.248.781 1.367 1.693 2.653 2.734 3.857 1.042 1.204 2.246 2.23 3.613 3.076-1.367-.26-2.783-.57-4.248-.928-1.465-.358-2.881-.928-4.248-1.709v.488c0 2.344.374 4.492 1.123 6.445.749 1.953 1.807 3.841 3.174 5.664 1.302 1.823 2.865 3.271 4.687 4.346 1.823 1.074 3.939 1.742 6.348 2.002-.781.26-1.595.407-2.441.439-.846.033-1.79.049-2.832.049-.521 0-1.074-.016-1.66-.049-.586-.033-1.27-.179-2.051-.439.781 2.083 1.725 3.841 2.832 5.273 1.107 1.432 2.441 2.832 4.004 4.199 1.563 1.302 3.271 2.23 5.127 2.783 1.855.553 3.825.83 5.908.83-3.385 2.669-7.048 4.655-10.986 5.957-3.939 1.302-8.154 1.953-12.646 1.953-.781 0-1.546-.016-2.295-.049-.749-.033-1.383-.179-1.904-.439 4.427 2.865 9.033 4.98 13.818 6.348 4.785 1.367 9.814 2.051 15.088 2.051 4.232 0 8.236-.391 12.012-1.172 3.776-.781 7.487-1.953 11.133-3.516 3.451-1.628 6.592-3.483 9.424-5.566 2.832-2.083 5.322-4.46 7.471-7.129 2.083-2.604 4.004-5.355 5.762-8.252 1.758-2.897 3.158-5.941 4.199-9.131 1.302-3.125 2.246-6.266 2.832-9.424.586-3.158.879-6.331.879-9.521v-1.563c1.823-1.302 3.532-2.767 5.127-4.395 1.595-1.628 3.044-3.483 4.346-5.566-1.823.781-3.662 1.432-5.518 1.953-1.855.521-3.695.911-5.518 1.172z" sketch:type="MSShapeGroup" stroke="#fff" stroke-width="2" fill="none"/></svg>