<svg width="100" height="100" viewBox="0 0 100 100" xmlns="http://www.w3.org/2000/svg"><title>export</title><g transform="translate(5 9)" fill="none"><path d="M27.1 73.912c5.335 3.308 11.49 5.088 17.9 5.088 6.912 0 13.52-2.07 19.114-5.878l1.532-1.043-.924-1.61c-1.122-1.949-1.722-4.164-1.722-6.469 0-7.18 5.82-13 13-13l.652.016 1.852.09.23-1.84c.178-1.406.266-2.83.266-4.266 0-12.752-7.083-24.25-18.16-30.092l-2.596-1.37-.325 2.918c-.729 6.542-6.285 11.544-12.919 11.544-6.64 0-12.193-5.002-12.92-11.544l-.326-2.917-2.596 1.365c-11.078 5.846-18.16 17.341-18.16 30.096 0 1.82.143 3.625.427 5.4l.3 1.872 1.886-.2c.46-.05.925-.073 1.39-.073 7.18 0 13 5.82 13 13 0 2.214-.552 4.35-1.6 6.25l-.91 1.66 1.61 1z" stroke="#50E3C2" stroke-width="4"/><circle fill="#E9344A" cx="45" cy="15" r="15"/><circle fill="#BD0FE1" cx="76" cy="64" r="15"/><circle fill="#F6A623" cx="15" cy="65" r="15"/></g></svg>