<svg width="200" height="200" xmlns="http://www.w3.org/2000/svg"><path d="M100 200c55.228 0 100-44.772 100-100S155.228 0 100 0 0 44.772 0 100s44.772 100 100 100zm-10.744-83.47H73.964l2.09 18.92s.485-.18 4.493-.847c6.5-1.084 13.012-1.752 19.21-1.792h.58c6.374 0 12.943.67 19.398 1.78 1.254.22 4.002.76 4.002.76l2.086-18.81H109.09a4.959 4.959 0 0 1-4.953 4.96H94.21a4.957 4.957 0 0 1-4.954-4.96v-.011zm-18.166-9.92h57.434a11.766 11.766 0 0 0 7.602 4.763c.1.57.12 1.173.05 1.796l-3.076 27.7c-.4 3.62-3.61 5.91-7.18 5.11 0 0-12.44-3.267-25.58-3.267-13.14 0-26.46 3.316-26.46 3.316-3.6.75-6.8-1.54-7.2-5.165l-3.08-27.7a6.263 6.263 0 0 1 .094-2.02 11.76 11.76 0 0 0 7.397-4.54l-.001.007zm1.222-6.75l.014-.54c0-4.907-3.336-9.038-7.863-10.262V53.68c0-7.674 6.417-13.184 12.355-13.184h45.52c9 0 13.2 7.823 13.2 13.185v34.68c-4.557 1.28-7.863 5.5-7.776 10.43.007.41.038.82.09 1.22-5.914-2.62-15.246-5.44-28.013-5.44-12.55 0-21.69 2.727-27.53 5.307l.003-.018zm48.7-12.652c-4.624-1.12-12.374-2.57-21.488-2.57-9.526 0-17.17 1.443-21.423 2.477a10.309 10.309 0 0 0-3.69-3.906V53.53c0-1.867 1.74-3.13 3.1-3.13h44.76c1.87 0 3.33 1.64 3.33 3.317v29.03a10.37 10.37 0 0 0-4.58 4.46l-.009.001zm-65.587 67.335h-.056a2.48 2.48 0 0 1 2.48 2.48c0 1.38-1.11 2.48-2.48 2.48h-6.61c-1.38 0-2.49-1.11-2.49-2.48 0-1.38 1.11-2.48 2.48-2.48h-.05l-2.42-49.583h11.57l-2.426 49.585.002-.002zM44.627 95.04a4.963 4.963 0 0 0-4.958 4.96c0 2.74 2.22 4.96 4.95 4.96H59.5c2.74 0 4.96-2.227 4.96-4.96 0-2.74-2.22-4.96-4.958-4.96H44.627zm106.666 59.505h-.056a2.48 2.48 0 1 1-.008 4.96h-6.61a2.476 2.476 0 0 1-2.48-2.48c0-1.38 1.11-2.48 2.48-2.48h-.058l-2.426-49.586h11.57l-2.428 49.58.016.006zM140.495 95.04a4.96 4.96 0 1 0 0 9.92h14.878a4.963 4.963 0 0 0 4.958-4.96c0-2.74-2.22-4.96-4.95-4.96H140.495z" fill="#EB1234" fill-rule="evenodd"/></svg>