<svg width="200" height="200" viewBox="0 0 200 200" xmlns="http://www.w3.org/2000/svg"><title>logo</title><path d="M100 200c55.228 0 100-44.772 100-100s-44.772-100-100-100-100 44.772-100 100 44.772 100 100 100zm-10.744-83.47h-15.292l2.09 18.92s.485-.18 4.493-.847c6.5-1.084 13.012-1.752 19.21-1.792h.58c6.374 0 12.943.67 19.398 1.78 1.254.22 4.002.76 4.002.76l2.086-18.81h-16.733c0 2.735-2.217 4.96-4.953 4.96h-9.927c-2.736 0-4.954-2.22-4.954-4.96zm-18.166-9.92h57.434c1.774 2.48 4.483 4.236 7.602 4.763.1.57.12 1.173.05 1.796l-3.076 27.7c-.4 3.62-3.61 5.91-7.18 5.11 0 0-12.44-3.267-25.58-3.267-13.14 0-26.46 3.316-26.46 3.316-3.6.75-6.8-1.54-7.2-5.165l-3.08-27.7c-.08-.705-.042-1.384.094-2.02 3.013-.52 5.633-2.19 7.397-4.54zm1.222-6.75l.014-.54c0-4.907-3.336-9.038-7.863-10.262v-35.378c0-7.674 6.417-13.184 12.355-13.184h45.52c9 0 13.2 7.823 13.2 13.185v34.68c-4.557 1.28-7.863 5.5-7.776 10.43.007.41.038.82.09 1.22-5.914-2.62-15.246-5.44-28.013-5.44-12.55 0-21.69 2.727-27.53 5.307zm48.7-12.652c-4.624-1.12-12.374-2.57-21.488-2.57-9.526 0-17.17 1.443-21.423 2.477-.86-1.605-2.14-2.954-3.69-3.906v-29.679c0-1.867 1.74-3.13 3.1-3.13h44.76c1.87 0 3.33 1.64 3.33 3.317v29.03c-1.96.964-3.56 2.532-4.58 4.46zm-65.587 67.335h-.056c1.37 0 2.48 1.11 2.48 2.48 0 1.38-1.11 2.48-2.48 2.48h-6.61c-1.38 0-2.49-1.11-2.49-2.48 0-1.38 1.11-2.48 2.48-2.48h-.05l-2.42-49.583h11.57l-2.426 49.585zm-10.798-59.503c-2.738 0-4.958 2.227-4.958 4.96 0 2.74 2.22 4.96 4.95 4.96h14.881c2.74 0 4.96-2.227 4.96-4.96 0-2.74-2.22-4.96-4.958-4.96h-14.875zm106.666 59.505h-.056c1.373 0 2.482 1.11 2.482 2.48 0 1.38-1.12 2.48-2.49 2.48h-6.61c-1.375 0-2.48-1.11-2.48-2.48 0-1.38 1.11-2.48 2.48-2.48h-.058l-2.426-49.586h11.57l-2.428 49.58zm-10.798-59.505c-2.738 0-4.958 2.227-4.958 4.96 0 2.74 2.222 4.96 4.958 4.96h14.878c2.738 0 4.958-2.227 4.958-4.96 0-2.74-2.22-4.96-4.95-4.96h-14.881z" fill="#DD2323" fill-rule="evenodd"/></svg>