<svg width="200" height="200" viewBox="0 0 200 200" xmlns="http://www.w3.org/2000/svg"><title>Shape</title><desc>Created with Sketch.</desc><path d="M100 200c55.228 0 100-44.772 100-100s-44.772-100-100-100-100 44.772-100 100 44.772 100 100 100zm-10.744-83.47h-15.292l2.09 18.92s.485-.18 4.493-.847c6.5-1.084 13.012-1.752 19.21-1.792h.58c6.374 0 12.943.67 19.398 1.78 1.254.22 4.002.76 4.002.76l2.086-18.81h-16.733c.001 2.737-2.216 4.957-4.953 4.96h-9.927c-1.315-.001-2.575-.524-3.504-1.454-.929-.93-1.451-2.191-1.45-3.506v-.011zm-18.166-9.92h57.434c1.806 2.529 4.538 4.242 7.602 4.763.1.57.12 1.173.05 1.796l-3.076 27.7c-.4 3.62-3.61 5.91-7.18 5.11 0 0-12.44-3.267-25.58-3.267-13.14 0-26.46 3.316-26.46 3.316-3.6.75-6.8-1.54-7.2-5.165l-3.08-27.7c-.078-.674-.047-1.356.094-2.02 2.954-.515 5.6-2.139 7.397-4.54l-.001.007zm1.222-6.75l.014-.54c0-4.907-3.336-9.038-7.863-10.262v-35.378c0-7.674 6.417-13.184 12.355-13.184h45.52c9 0 13.2 7.823 13.2 13.185v34.68c-4.557 1.28-7.863 5.5-7.776 10.43.007.41.038.82.09 1.22-5.914-2.62-15.246-5.44-28.013-5.44-12.55 0-21.69 2.727-27.53 5.307l.003-.018zm69.823 5.1h-1.64c-2.739 0-4.96-2.221-4.96-4.96s2.221-4.96 4.96-4.96h14.886c2.73 0 4.95 2.22 4.95 4.96-.002 2.738-2.22 4.957-4.958 4.96h-1.668l-2.428 49.579.016.006h-.056c.886.001 1.704.475 2.146 1.243.442.768.44 1.713-.004 2.48-.444.767-1.264 1.238-2.15 1.237h-6.61c-.658.001-1.289-.26-1.755-.725-.465-.465-.726-1.097-.725-1.755 0-1.38 1.11-2.48 2.48-2.48h-.058l-2.426-49.585zm-95.856 0h-1.66c-2.73 0-4.95-2.22-4.95-4.96.002-2.738 2.22-4.957 4.958-4.96h14.875c2.738 0 4.958 2.22 4.958 4.96 0 2.733-2.22 4.96-4.96 4.96h-1.651l-2.426 49.585.002-.002h-.056c1.37 0 2.48 1.11 2.48 2.48 0 1.38-1.11 2.48-2.48 2.48h-6.61c-1.38 0-2.49-1.11-2.49-2.48 0-1.38 1.11-2.48 2.48-2.48h-.05l-2.42-49.583zm74.733-17.752c-4.624-1.12-12.374-2.57-21.488-2.57-9.526 0-17.17 1.443-21.423 2.477-.863-1.605-2.136-2.953-3.69-3.906v-29.679c0-1.867 1.74-3.13 3.1-3.13h44.76c1.87 0 3.33 1.64 3.33 3.317v29.03c-1.958.967-3.561 2.528-4.58 4.46l-.009.001z" fill="#EB1234"/></svg>