<svg width="558" height="144" viewBox="0 0 558 144" xmlns="http://www.w3.org/2000/svg"><title>apple-podcasts</title><desc>Created with Sketch.</desc><defs><linearGradient x1="50.002%" y1="0%" x2="50.002%" y2="100%" id="a"><stop stop-color="#F452FF" offset="0%"/><stop stop-color="#832BC1" offset="100%"/></linearGradient></defs><g fill="none"><g id="Group"><path d="M555.661 128.133c0 7.751-7.135 14.034-15.938 14.034h-522.086c-8.813.009-15.966-6.274-15.976-14.034v-111.914c.01-7.763 7.16-14.051 15.976-14.051h522.067c8.813 0 15.957 6.291 15.957 14.051v111.914z" id="Shape" stroke="#999" stroke-width="3" fill="#010101" fill-rule="nonzero"/><g id="Shape"><path d="M118.285 106.621c-.913 2.316-3.015 5.574-5.997 7.873-1.721 1.328-3.778 2.592-6.604 3.43-3.011.892-6.718 1.194-11.333 1.194h-42.202c-4.615 0-8.321-.302-11.333-1.194-2.823-.838-4.879-2.107-6.604-3.43-2.982-2.295-5.088-5.557-5.997-7.873-1.834-4.665-1.855-9.959-1.855-13.293v-42.202c0-3.334.017-8.627 1.855-13.293.913-2.316 3.015-5.574 5.997-7.873 1.721-1.323 3.778-2.592 6.604-3.43 3.011-.892 6.718-1.194 11.333-1.194h42.202c4.615 0 8.321.302 11.333 1.194 2.823.838 4.879 2.107 6.604 3.43 2.982 2.295 5.088 5.557 5.997 7.873 1.834 4.665 1.855 9.959 1.855 13.293v42.202c0 3.334-.017 8.627-1.855 13.293z" fill="url(#a)"/><path d="M118.285 106.621c-.913 2.316-3.015 5.574-5.997 7.873-1.721 1.328-3.778 2.592-6.604 3.43-3.011.892-6.718 1.194-11.333 1.194h-42.202c-4.615 0-8.321-.302-11.333-1.194-2.823-.838-4.879-2.107-6.604-3.43-2.982-2.295-5.088-5.557-5.997-7.873-1.834-4.665-1.855-9.959-1.855-13.293v-42.202c0-3.334.017-8.627 1.855-13.293.913-2.316 3.015-5.574 5.997-7.873 1.721-1.323 3.778-2.592 6.604-3.43 3.011-.892 6.718-1.194 11.333-1.194h42.202c4.615 0 8.321.302 11.333 1.194 2.823.838 4.879 2.107 6.604 3.43 2.982 2.295 5.088 5.557 5.997 7.873 1.834 4.665 1.855 9.959 1.855 13.293v42.202c0 3.334-.017 8.627-1.855 13.293z"/><path d="M80.049 79.24c-1.407-1.483-3.878-2.437-6.797-2.437-2.919 0-5.39.951-6.797 2.437-.733.775-1.122 1.57-1.244 2.701-.239 2.19-.105 4.079.151 7.094.243 2.873.708 6.705 1.315 10.612.431 2.777.783 4.276 1.101 5.352.515 1.738 2.45 3.262 5.474 3.262s4.954-1.52 5.474-3.262c.318-1.072.67-2.571 1.101-5.352.607-3.903 1.072-7.735 1.315-10.612.255-3.015.389-4.904.151-7.094-.117-1.131-.507-1.926-1.244-2.701zm-14.461-13.221c0 4.238 3.434 7.677 7.677 7.677 4.242 0 7.677-3.434 7.677-7.677 0-4.238-3.438-7.677-7.677-7.677-4.238 0-7.677 3.438-7.677 7.677zm7.58-30.287c-17.95.05-32.658 14.612-32.88 32.561-.18 14.541 9.1 26.979 22.062 31.535.314.109.632-.151.586-.482l-.477-3.38c-.05-.394-.302-.733-.666-.892-10.244-4.477-17.397-14.75-17.284-26.648.151-15.617 12.903-28.348 28.52-28.478 15.965-.13 28.998 12.824 28.998 28.759 0 11.781-7.124 21.928-17.288 26.367-.364.159-.616.498-.666.892l-.477 3.376c-.05.331.268.591.582.482 12.836-4.515 22.066-16.76 22.066-31.121-.004-18.209-14.851-33.026-33.077-32.972zm-.599 15.131c10.177-.394 18.578 7.769 18.578 17.858 0 5.13-2.174 9.762-5.65 13.029-.293.276-.452.67-.431 1.072.067 1.227.042 2.421-.038 3.765-.021.36.381.586.678.385 5.825-3.983 9.657-10.675 9.657-18.251 0-12.472-10.39-22.565-22.967-22.075-11.689.452-21.07 10.089-21.216 21.79-.096 7.693 3.757 14.507 9.657 18.54.297.201.699-.029.674-.385-.084-1.349-.109-2.542-.038-3.769.021-.402-.134-.796-.431-1.072-3.585-3.363-5.784-8.183-5.641-13.506.255-9.368 7.806-17.02 17.166-17.38z" fill="#fff" fill-rule="nonzero"/></g></g><g id="Group" fill-rule="nonzero" fill="#fff"><path d="M155.705 55.565h-16.404v-27.017h3.371v23.985h13.033v3.032zm4.1-24.772c0-1.122.917-2.023 2.023-2.023 1.122 0 2.04.9 2.04 2.023 0 1.106-.917 2.023-2.04 2.023-1.106 0-2.023-.917-2.023-2.023zm.394 5.298h3.258v19.474h-3.258v-19.474zm15.726-.168c4.008 0 7.023 2.358 7.136 5.599h-3.107c-.188-1.818-1.759-2.94-4.138-2.94-2.358 0-3.949 1.127-3.949 2.793 0 1.311 1.03 2.174 3.237 2.731l3.015.729c3.933.993 5.352 2.379 5.352 5.206 0 3.35-3.221 5.712-7.752 5.712-4.251 0-7.283-2.282-7.584-5.691h3.258c.318 1.985 1.91 3.032 4.531 3.032 2.622 0 4.272-1.085 4.272-2.806 0-1.349-.804-2.06-2.994-2.638l-3.426-.879c-3.426-.879-5.109-2.605-5.109-5.227-.008-3.3 2.99-5.62 7.258-5.62zm16.35-4.531v4.699h3.782v2.68h-3.782v11.55c0 1.78.75 2.584 2.416 2.584l1.349-.092v2.735c-.394.092-1.294.151-2.06.151-3.577 0-4.963-1.462-4.963-5.206v-11.722h-2.902v-2.68h2.902v-4.699h3.258zm23.938 18.595c-.54 3.371-3.933 5.767-8.108 5.767-5.503 0-8.971-3.803-8.971-9.85s3.484-9.997 8.816-9.997c5.227 0 8.502 3.669 8.502 9.57v1.235h-13.967v.188c0 3.652 2.266 6.026 5.691 6.026 2.396 0 4.288-1.143 4.829-2.94h3.208zm-13.703-5.821h10.579c-.075-3.258-2.153-5.428-5.185-5.428-3.015-.004-5.189 2.186-5.394 5.428zm18.352-8.074h3.07v3.183h.075c1.219-2.228 3.162-3.371 6.177-3.371 4.272 0 6.743 2.751 6.743 7.17v12.489h-3.258v-11.906c0-3.145-1.462-4.871-4.494-4.871-3.145 0-5.055 2.19-5.055 5.486v11.291h-3.258v-19.47zm29.374 9.741c0-6.068 3.518-9.925 9.025-9.925 5.486 0 9.004 3.857 9.004 9.925 0 6.047-3.518 9.925-9.004 9.925-5.503-.004-9.025-3.882-9.025-9.925zm14.717 0c0-4.439-2.115-7.061-5.691-7.061-3.593 0-5.712 2.638-5.712 7.061 0 4.439 2.136 7.061 5.712 7.061 3.577 0 5.691-2.626 5.691-7.061zm7.718-9.741h3.07v3.183h.075c1.219-2.228 3.162-3.371 6.177-3.371 4.272 0 6.743 2.751 6.743 7.17v12.489h-3.258v-11.906c0-3.145-1.462-4.871-4.494-4.871-3.145 0-5.055 2.19-5.055 5.486v11.291h-3.258v-19.47zM161.685 103.166h-15.29l-3.669 10.843h-6.479l14.482-40.112h6.726l14.482 40.112h-6.588l-3.664-10.843zm-13.703-5h12.12l-5.976-17.598h-.168l-5.976 17.598zm55.964 1.223c0 9.088-4.866 14.926-12.204 14.926-4.171 0-7.476-1.864-9.201-5.118h-.138v14.482h-6.006v-38.919h5.809v4.866h.109c1.667-3.141 5.227-5.168 9.314-5.168 7.421.004 12.317 5.867 12.317 14.93zm-6.173 0c0-5.922-3.057-9.812-7.727-9.812-4.586 0-7.672 3.974-7.672 9.812 0 5.892 3.087 9.842 7.672 9.842 4.67 0 7.727-3.865 7.727-9.842zm38.584 0c0 9.088-4.866 14.926-12.204 14.926-4.171 0-7.476-1.864-9.201-5.118h-.138v14.482h-6.006v-38.919h5.809v4.866h.109c1.667-3.141 5.227-5.168 9.314-5.168 7.421.004 12.317 5.867 12.317 14.93zm-6.173 0c0-5.922-3.057-9.812-7.727-9.812-4.586 0-7.672 3.974-7.672 9.812 0 5.892 3.087 9.842 7.672 9.842 4.67 0 7.727-3.865 7.727-9.842zm11.257-25.492h6.006v40.112h-6.006v-40.112zm38.487 31.527c-.804 5.31-5.976 8.95-12.593 8.95-8.506 0-13.787-5.7-13.787-14.842 0-9.172 5.31-15.123 13.536-15.123 8.091 0 13.175 5.557 13.175 14.428v2.056h-20.655v.36c0 5.005 3.141 8.284 7.865 8.284 3.334 0 5.947-1.583 6.755-4.113h5.704zm-20.291-8.732h14.62c-.138-4.477-3.003-7.421-7.17-7.421-4.142 0-7.145 3.003-7.45 7.421zm54.85-22.795c7.781 0 13.205 5.365 13.205 13.175 0 7.84-5.532 13.23-13.397 13.23h-8.619v13.703h-6.228v-40.112h15.039v.004zm-8.811 21.183h7.145c5.419 0 8.506-2.919 8.506-7.978 0-5.059-3.087-7.949-8.476-7.949h-7.17v15.927h-.004zm24.83 4.309c0-9.201 5.419-14.985 13.871-14.985 8.476 0 13.871 5.779 13.871 14.985 0 9.23-5.365 14.985-13.871 14.985s-13.871-5.754-13.871-14.985zm21.627 0c0-6.311-2.89-10.034-7.756-10.034s-7.756 3.752-7.756 10.034c0 6.336 2.89 10.034 7.756 10.034s7.756-3.698 7.756-10.034zm10.273 0c0-9.033 4.975-14.926 12.229-14.926 4.196 0 7.505 1.943 9.172 5.168h.109v-15.734h6.031v40.112h-5.838v-4.975h-.109c-1.725 3.334-5.059 5.281-9.314 5.281-7.304.004-12.279-5.892-12.279-14.926zm6.144 0c0 6.006 3.057 9.842 7.727 9.842 4.615 0 7.697-3.891 7.697-9.842 0-5.892-3.087-9.812-7.697-9.812-4.67 0-7.727 3.865-7.727 9.812zm47.454-4.561c-.528-3.087-2.948-5.394-6.893-5.394-4.615 0-7.672 3.865-7.672 9.951 0 6.228 3.087 9.98 7.727 9.98 3.727 0 6.173-1.864 6.839-5.252h5.784c-.67 6.144-5.587 10.256-12.677 10.256-8.338 0-13.787-5.7-13.787-14.985 0-9.088 5.449-14.985 13.732-14.985 7.505 0 12.174 4.724 12.677 10.424h-5.729v.004zm9.582 10.813c0-5.114 3.92-8.116 11.203-8.56l7.781-.444v-2.224c0-3.308-2.194-5.084-6.006-5.084-3.141 0-5.449 1.612-5.922 4.113h-5.616c.168-5.227 5.059-9.033 11.705-9.033 7.17 0 11.81 3.752 11.81 9.561v20.044h-5.75v-4.808h-.138c-1.642 3.141-5.285 5.227-9.23 5.227-5.809-.004-9.838-3.593-9.838-8.791zm18.984-2.584v-2.253l-7.006.444c-3.891.222-5.947 1.725-5.947 4.255 0 2.446 2.14 4.171 5.478 4.171 4.255 0 7.476-2.835 7.476-6.617zm23.532-18.624c6.475 0 11.115 3.585 11.257 8.757h-5.641c-.255-2.584-2.446-4.171-5.784-4.171-3.25 0-5.419 1.499-5.419 3.782 0 1.751 1.445 2.919 4.473 3.669l4.921 1.139c5.892 1.416 8.116 3.585 8.116 7.865 0 5.281-5.005 8.895-12.149 8.895-6.893 0-11.534-3.53-11.978-8.87h5.947c.419 2.806 2.672 4.309 6.311 4.309 3.585 0 5.842-1.474 5.842-3.807 0-1.809-1.114-2.781-4.171-3.56l-5.227-1.277c-5.281-1.282-7.949-3.974-7.949-8.033-.004-5.168 4.636-8.698 11.45-8.698zm25.203-6.588v6.919h5.557v4.753h-5.557v16.124c0 2.504 1.114 3.669 3.56 3.669.611 0 1.583-.084 1.973-.138v4.724c-.666.168-2.002.276-3.334.276-5.922 0-8.229-2.224-8.229-7.894v-16.76h-4.255v-4.753h4.255v-6.919h6.031zm21.669 6.588c6.475 0 11.115 3.585 11.257 8.757h-5.641c-.255-2.584-2.446-4.171-5.784-4.171-3.25 0-5.419 1.499-5.419 3.782 0 1.751 1.445 2.919 4.473 3.669l4.921 1.139c5.892 1.416 8.116 3.585 8.116 7.865 0 5.281-5.005 8.895-12.149 8.895-6.893 0-11.534-3.53-11.978-8.87h5.947c.419 2.806 2.672 4.309 6.311 4.309 3.585 0 5.842-1.474 5.842-3.807 0-1.809-1.114-2.781-4.171-3.56l-5.227-1.277c-5.281-1.282-7.949-3.974-7.949-8.033-.008-5.168 4.636-8.698 11.45-8.698z" id="Shape"/></g><g><path d="M118.285 106.621c-.913 2.316-3.015 5.574-5.997 7.873-1.721 1.328-3.778 2.592-6.604 3.43-3.011.892-6.718 1.194-11.333 1.194h-42.202c-4.615 0-8.321-.302-11.333-1.194-2.823-.838-4.879-2.107-6.604-3.43-2.982-2.295-5.088-5.557-5.997-7.873-1.834-4.665-1.855-9.959-1.855-13.293v-42.202c0-3.334.017-8.627 1.855-13.293.913-2.316 3.015-5.574 5.997-7.873 1.721-1.323 3.778-2.592 6.604-3.43 3.011-.892 6.718-1.194 11.333-1.194h42.202c4.615 0 8.321.302 11.333 1.194 2.823.838 4.879 2.107 6.604 3.43 2.982 2.295 5.088 5.557 5.997 7.873 1.834 4.665 1.855 9.959 1.855 13.293v42.202c0 3.334-.017 8.627-1.855 13.293z" id="Shape" fill="url(#a)"/><path d="M118.285 106.621c-.913 2.316-3.015 5.574-5.997 7.873-1.721 1.328-3.778 2.592-6.604 3.43-3.011.892-6.718 1.194-11.333 1.194h-42.202c-4.615 0-8.321-.302-11.333-1.194-2.823-.838-4.879-2.107-6.604-3.43-2.982-2.295-5.088-5.557-5.997-7.873-1.834-4.665-1.855-9.959-1.855-13.293v-42.202c0-3.334.017-8.627 1.855-13.293.913-2.316 3.015-5.574 5.997-7.873 1.721-1.323 3.778-2.592 6.604-3.43 3.011-.892 6.718-1.194 11.333-1.194h42.202c4.615 0 8.321.302 11.333 1.194 2.823.838 4.879 2.107 6.604 3.43 2.982 2.295 5.088 5.557 5.997 7.873 1.834 4.665 1.855 9.959 1.855 13.293v42.202c0 3.334-.017 8.627-1.855 13.293z" id="Shape"/><path d="M80.049 79.24c-1.407-1.483-3.878-2.437-6.797-2.437-2.919 0-5.39.951-6.797 2.437-.733.775-1.122 1.57-1.244 2.701-.239 2.19-.105 4.079.151 7.094.243 2.873.708 6.705 1.315 10.612.431 2.777.783 4.276 1.101 5.352.515 1.738 2.45 3.262 5.474 3.262s4.954-1.52 5.474-3.262c.318-1.072.67-2.571 1.101-5.352.607-3.903 1.072-7.735 1.315-10.612.255-3.015.389-4.904.155-7.094-.121-1.131-.511-1.926-1.248-2.701zm-14.461-13.221c0 4.238 3.434 7.677 7.677 7.677 4.242 0 7.677-3.434 7.677-7.677 0-4.238-3.438-7.677-7.677-7.677-4.238 0-7.677 3.438-7.677 7.677zm7.58-30.287c-17.95.05-32.658 14.612-32.88 32.561-.18 14.541 9.1 26.979 22.062 31.535.314.109.632-.151.586-.482l-.477-3.38c-.05-.394-.302-.733-.666-.892-10.244-4.477-17.397-14.75-17.284-26.648.151-15.617 12.903-28.348 28.52-28.478 15.965-.13 28.998 12.824 28.998 28.759 0 11.781-7.124 21.928-17.288 26.367-.364.159-.616.498-.666.892l-.477 3.376c-.05.331.268.591.586.482 12.836-4.515 22.062-16.76 22.062-31.121-.004-18.209-14.851-33.026-33.077-32.972zm-.599 15.131c10.177-.394 18.578 7.769 18.578 17.858 0 5.13-2.174 9.762-5.65 13.029-.293.276-.452.67-.431 1.072.067 1.227.042 2.421-.038 3.765-.021.36.381.586.678.385 5.825-3.983 9.657-10.675 9.657-18.251 0-12.472-10.39-22.565-22.967-22.075-11.689.452-21.07 10.089-21.216 21.79-.096 7.693 3.757 14.507 9.657 18.54.297.201.699-.029.674-.385-.084-1.349-.109-2.542-.038-3.769.021-.402-.134-.796-.431-1.072-3.585-3.363-5.784-8.183-5.641-13.506.255-9.368 7.806-17.02 17.166-17.38z" fill="#fff" fill-rule="nonzero"/></g></g></svg>