<svg width="385" height="144" viewBox="0 0 385 144" xmlns="http://www.w3.org/2000/svg"><title>overcast</title><desc>Created with Sketch.</desc><g fill="none"><path d="M25.763 142.01c-1.983-.059-4.334-.172-6.629-.596-2.163-.402-4.089-1.061-5.877-2.005-1.848-.969-3.511-2.217-4.955-3.72-1.468-1.485-2.674-3.194-3.621-5.107-.919-1.847-1.55-3.83-1.926-6.062-.433-2.462-.543-4.957-.592-6.859-.021-.772-.053-3.34-.053-3.34v-84.51s.032-2.528.053-3.274c.046-1.917.156-4.412.589-6.848.379-2.243 1.007-4.225 1.929-6.076.943-1.917 2.149-3.636 3.6-5.114 1.468-1.515 3.135-2.769 4.972-3.739 1.823-.955 3.742-1.606 5.863-1.99 2.39-.443 4.809-.556 6.654-.604l3.199-.044h327.55l3.238.048c1.819.048 4.238.157 6.59.596 2.139.384 4.068 1.043 5.926 2.005 1.819.962 3.483 2.213 4.937 3.717 1.451 1.485 2.667 3.212 3.628 5.136.915 1.869 1.539 3.852 1.897 6.032.411 2.308.539 4.679.617 6.903.011 1.035.011 2.147.011 3.256.028 1.372.028 2.678.028 3.995v76.564c0 1.328 0 2.627-.028 3.933 0 1.189 0 2.279-.014 3.402-.074 2.155-.202 4.522-.606 6.782-.369 2.243-.99 4.225-1.915 6.109-.958 1.902-2.171 3.618-3.603 5.07-1.465 1.529-3.128 2.777-4.962 3.739-1.841.966-3.717 1.602-5.916 2.012-2.273.424-4.625.538-6.629.596-1.039.026-2.128.04-3.181.04l-3.845.007-323.724-.015c-1.082 0-2.135-.015-3.206-.04z" stroke="#999" stroke-width="3" fill="#000"/><g fill="#F2F2F2"><path d="M153.697 59.929v-27.844h3.581v24.42h12.055v3.424h-15.637"/><path d="M153.697 59.929h.507v-27.337h2.568v24.42h12.055v2.411h-15.13v.507h.507-.507v.507h16.143v-4.437h-12.055v-24.42h-4.594v28.857h.507v-.507"/><path d="M174.303 59.828h3.576v-19.056h-3.576v19.056zm3.576-23.842c-.491.496-1.084.745-1.783.745-.704 0-1.302-.248-1.793-.745-.491-.491-.734-1.084-.734-1.783 0-.704.243-1.302.734-1.793.491-.491 1.089-.734 1.793-.734.699 0 1.292.243 1.783.734.491.491.745 1.089.745 1.793 0 .699-.253 1.292-.745 1.783z"/><path d="M177.879 59.823v-.507h-3.07v-18.038h2.563v18.544h.507v-.507.507h.507v-19.557h-4.589v20.064h4.589v-.507h-.507zm0-23.837l-.36-.355c-.41.405-.846.588-1.423.593-.588-.005-1.023-.187-1.433-.593v-.005c-.405-.41-.583-.846-.588-1.423.005-.588.182-1.023.588-1.433.41-.405.846-.583 1.433-.588.577.005 1.013.182 1.428.588.4.41.588.851.593 1.433-.005.572-.192 1.013-.593 1.423l-.005.005.36.355.36.36c.577-.572.897-1.322.891-2.143.005-.826-.314-1.58-.891-2.153-.572-.577-1.327-.886-2.143-.881-.826-.005-1.575.304-2.148.881-.583.577-.891 1.327-.886 2.153-.005.816.304 1.57.886 2.143l-.005-.005c.572.588 1.327.902 2.153.897.816.005 1.57-.309 2.143-.897v.005l-.36-.36z"/><path d="M191.186 60.446c-2.132 0-3.885-.517-5.273-1.555-1.388-1.033-2.406-2.33-3.049-3.885l3.186-1.322c1.013 2.386 2.735 3.576 5.172 3.576 1.114 0 2.026-.248 2.74-.74.714-.491 1.069-1.14 1.069-1.945 0-1.241-.866-2.087-2.604-2.528l-3.85-.932c-1.221-.309-2.371-.902-3.46-1.773-1.089-.866-1.636-2.041-1.636-3.515 0-1.687.75-3.054 2.239-4.103 1.489-1.054 3.262-1.575 5.308-1.575 1.687 0 3.186.38 4.508 1.15 1.322.76 2.269 1.859 2.837 3.282l-3.105 1.287c-.699-1.687-2.158-2.528-4.361-2.528-1.059 0-1.955.218-2.68.658-.729.441-1.089 1.038-1.089 1.788 0 1.089.846 1.829 2.528 2.219l3.769.891c1.793.415 3.115 1.13 3.971 2.138.856 1.013 1.282 2.158 1.282 3.424 0 1.712-.699 3.14-2.097 4.28-1.403 1.14-3.201 1.707-5.405 1.707"/><path d="M191.186 60.446v-.507c-2.051-.005-3.688-.496-4.969-1.454h-.005c-1.317-.983-2.269-2.203-2.882-3.672l-.466.192.192.466 3.186-1.322-.192-.466-.466.198c1.049 2.528 3.029 3.905 5.638 3.885 1.185 0 2.214-.263 3.029-.831.826-.552 1.297-1.403 1.287-2.36.015-1.525-1.16-2.588-2.983-3.019h-.005l-3.85-.932-.122.491.127-.491c-1.145-.289-2.229-.846-3.272-1.677-.973-.78-1.433-1.768-1.444-3.12.01-1.535.643-2.705 2.021-3.688l.005-.005v.005c1.398-.988 3.054-1.484 5.015-1.484 1.611 0 3.014.36 4.255 1.079 1.231.714 2.087 1.707 2.619 3.039l.471-.192-.192-.466-3.11 1.282.198.471.466-.192c-.76-1.889-2.507-2.867-4.827-2.842-1.13 0-2.122.233-2.943.729-.841.496-1.347 1.302-1.332 2.224-.005 1.413 1.17 2.33 2.918 2.715l3.769.886h.005c1.722.405 2.933 1.079 3.698 1.975.785.937 1.16 1.94 1.16 3.095-.005 1.57-.613 2.816-1.91 3.885-1.302 1.059-2.968 1.591-5.086 1.596v1.013c2.284 0 4.219-.593 5.724-1.824 1.499-1.211 2.295-2.816 2.284-4.67.005-1.383-.476-2.659-1.403-3.748-.947-1.119-2.381-1.874-4.24-2.305l-3.769-.891h-.005c-1.616-.405-2.132-.967-2.132-1.727.01-.577.228-.962.846-1.357.628-.38 1.423-.583 2.416-.583 2.087.02 3.257.729 3.89 2.214l.192.466 3.576-1.474.466-.192-.187-.466c-.608-1.52-1.636-2.72-3.054-3.536-1.403-.816-2.999-1.221-4.761-1.216-2.132-.005-4.022.552-5.602 1.672v-.005c-1.596 1.114-2.462 2.674-2.452 4.518-.005 1.601.618 2.963 1.824 3.915 1.14.907 2.36 1.535 3.657 1.864l3.855.937-.005-.005c1.646.451 2.203 1.079 2.219 2.036-.01.648-.248 1.099-.851 1.53-.608.42-1.408.648-2.452.648-2.264-.025-3.728-1.023-4.706-3.267l-.198-.466-3.652 1.52-.466.192.192.466c.679 1.636 1.763 3.014 3.216 4.098 1.489 1.114 3.368 1.656 5.577 1.656v-.507"/><path d="M211.401 60.137c-1.996 0-3.52-.532-4.569-1.596s-1.57-2.568-1.57-4.508v-9.994h-3.348v-3.267h3.348v-5.835h3.571v5.835h4.67v3.267h-4.67v9.72c0 2.072.861 3.11 2.568 3.11.653 0 1.19-.101 1.636-.309l1.241 3.07c-.775.339-1.732.507-2.877.507"/><path d="M211.401 60.137v-.507c-1.91-.005-3.277-.501-4.204-1.444h-.005c-.937-.947-1.423-2.3-1.423-4.154v-10.5h-3.348v-2.254h3.348v-5.835h2.558v5.835h4.67v2.254h-4.67v10.227c.005 1.099.223 2.001.76 2.654.537.658 1.368.967 2.315.962.704 0 1.322-.111 1.849-.36l-.213-.456-.471.187 1.246 3.07.466-.187-.203-.466c-.689.304-1.58.466-2.674.466v1.013c1.19-.005 2.219-.177 3.08-.552l.456-.198-1.631-4.017-.481.223c-.36.167-.826.263-1.423.263-.76-.005-1.216-.213-1.535-.593-.319-.385-.527-1.038-.522-2.011v-9.214h4.665v-4.28h-4.665v-5.835h-4.589v5.835h-3.348v4.28h3.348v9.487c-.005 2.026.552 3.688 1.717 4.863 1.165 1.185 2.852 1.748 4.929 1.748v-.507"/><path d="M232.052 48.006c-.081-1.089-.583-2.127-1.504-3.11-.917-.988-2.284-1.479-4.098-1.479-1.327 0-2.472.415-3.444 1.246-.967.826-1.636 1.94-2.001 3.343h11.047zm-5.136 12.44c-2.877 0-5.217-.957-7.02-2.877s-2.705-4.341-2.705-7.269c0-2.776.876-5.162 2.629-7.157 1.748-1.996 3.981-2.994 6.706-2.994 2.821 0 5.086.922 6.782 2.761 1.702 1.839 2.548 4.306 2.548 7.39l-.041.658h-15.044c.101 1.92.745 3.439 1.925 4.549 1.18 1.114 2.563 1.672 4.138 1.672 2.568 0 4.306-1.084 5.217-3.267l3.186 1.327c-.628 1.479-1.646 2.715-3.075 3.713-1.428.998-3.171 1.494-5.248 1.494z"/><path d="M232.554 47.97c-.086-1.226-.658-2.381-1.636-3.424-1.038-1.109-2.568-1.636-4.468-1.636-1.428 0-2.715.461-3.774 1.368-1.054.897-1.778 2.117-2.163 3.601l-.167.633h12.248l-.041-.542-.501.035-10.561.127c.35-1.317.957-2.33 1.844-3.085.886-.755 1.894-1.119 3.115-1.124 1.727.005 2.928.461 3.728 1.317.861.922 1.297 1.844 1.368 2.801l.507-.035.501-.035zm-5.638 11.969c-2.771-.005-4.939-.902-6.651-2.72-1.712-1.824-2.563-4.093-2.568-6.919.005-2.669.831-4.913 2.502-6.823 1.672-1.894 3.728-2.816 6.327-2.821 2.715.005 4.807.866 6.413 2.598 1.601 1.732 2.411 4.047 2.411 7.046h.507l-.507-.03-.01.182h-15.1l.025.532c.106 2.016.795 3.682 2.082 4.893 1.261 1.195 2.791 1.813 4.488 1.808 2.71.025 4.726-1.226 5.683-3.576l-.466-.198-.198.471 3.186 1.322.198-.466-.466-.198c-.588 1.388-1.54 2.543-2.897 3.495-1.332.927-2.963 1.398-4.959 1.403v1.013c2.153 0 4.017-.522 5.536-1.585 1.494-1.049 2.588-2.36 3.252-3.936l.198-.466-3.657-1.52-.466-.192-.198.466c-.861 2.001-2.315 2.928-4.746 2.953-1.459-.005-2.69-.496-3.794-1.535-1.074-1.013-1.661-1.844-1.763-3.672h-.507 15.52l.071-1.135c.005-3.206-.876-5.815-2.685-7.765-1.788-1.945-4.219-2.933-7.152-2.923-2.847-.01-5.258 1.064-7.086 3.166-1.834 2.082-2.761 4.609-2.756 7.492-.005 3.029.947 5.602 2.842 7.613 1.894 2.026 4.402 3.044 7.39 3.039v-1.014z"/><path d="M244.583 40.761l.083 2.218c.522-.907.932-1.245 2.041-1.878 1.114-.633 2.305-.952 3.581-.952 2.355 0 4.159.724 5.405 2.178 1.246 1.449 1.864 3.399 1.864 5.83v11.665h-3.576v-11.118c0-3.525-1.57-5.288-4.706-5.288-1.474 0-2.685.593-3.617 1.768-.932 1.18-1.403 2.548-1.403 4.103v10.536h-3.571v-19.051h3.414"/><path d="M243.591 40.772v3.151h.962l.147-.253c.461-.816 1.206-1.53 2.259-2.127 1.043-.593 2.138-.886 3.328-.886 2.259.005 3.88.679 5.02 2.001 1.15 1.342 1.742 3.151 1.742 5.501v11.159h-2.563v-10.612c0-1.834-.405-3.287-1.307-4.3-.897-1.018-2.249-1.499-3.905-1.494-1.611-.005-3.009.674-4.012 1.96-1.003 1.261-1.515 2.761-1.509 4.417v10.029h-2.563v-18.038h2.907v-.507h-.507.507v-.507h-3.921v20.064h4.589v-11.042c0-1.454.425-2.695 1.292-3.789.851-1.069 1.879-1.565 3.216-1.575 1.479.005 2.482.405 3.151 1.155.669.745 1.049 1.935 1.049 3.627v11.625h4.589v-12.172c.005-2.517-.648-4.599-1.986-6.159-1.347-1.58-3.338-2.365-5.79-2.355-1.357-.005-2.644.344-3.829 1.018-1.175.669-2.072 1.504-2.639 2.507l.436.248h.35v-3.151h-.507v.507h-.507z"/><path d="M277.757 55.295c1.236 1.261 2.69 1.884 4.376 1.884 1.687 0 3.146-.623 4.376-1.884 1.226-1.256 1.849-2.923 1.849-4.994 0-2.077-.623-3.738-1.849-4.999-1.231-1.256-2.69-1.884-4.376-1.884-1.687 0-3.14.628-4.376 1.884-1.231 1.261-1.844 2.923-1.844 4.999 0 2.072.613 3.738 1.844 4.994zm-2.659-12.248c1.839-1.93 4.184-2.897 7.036-2.897 2.852 0 5.197.967 7.041 2.897 1.839 1.93 2.761 4.351 2.761 7.254 0 2.902-.922 5.319-2.761 7.248-1.844 1.93-4.189 2.897-7.041 2.897-2.852 0-5.197-.967-7.036-2.897-1.849-1.93-2.766-4.346-2.766-7.248s.917-5.324 2.766-7.254z"/><path d="M277.757 55.295l-.365.355c1.312 1.347 2.928 2.041 4.741 2.036 1.813.005 3.429-.689 4.736-2.036 1.332-1.357 2.001-3.176 1.996-5.349.005-2.173-.664-3.997-1.996-5.354-1.307-1.342-2.923-2.041-4.736-2.036-1.813-.005-3.429.694-4.741 2.036-1.332 1.357-1.991 3.181-1.986 5.354-.005 2.168.653 3.991 1.986 5.349l.005.005-.005-.005.365-.355.36-.355c-1.124-1.16-1.692-2.664-1.697-4.64.005-1.981.572-3.485 1.697-4.645 1.16-1.17 2.457-1.727 4.017-1.732 1.56.005 2.862.562 4.012 1.732 1.13 1.16 1.702 2.664 1.707 4.645-.005 1.975-.577 3.48-1.707 4.64-1.15 1.175-2.452 1.727-4.012 1.732-1.56-.005-2.857-.557-4.017-1.732l-.005-.005.005.005-.36.355zm-2.659-12.248l.365.35c1.753-1.834 3.931-2.735 6.671-2.74 2.735.005 4.918.907 6.676 2.74v-.005c1.748 1.844 2.614 4.113 2.619 6.909-.005 2.796-.871 5.06-2.619 6.899-1.758 1.834-3.936 2.735-6.676 2.74-2.74-.005-4.918-.907-6.671-2.74-1.753-1.839-2.619-4.103-2.624-6.899.005-2.796.871-5.065 2.624-6.904l-.734-.704c-1.935 2.026-2.907 4.599-2.902 7.608-.005 3.004.967 5.577 2.902 7.598 1.93 2.031 4.442 3.059 7.405 3.054 2.963.005 5.476-1.023 7.405-3.054 1.935-2.021 2.907-4.594 2.902-7.598.005-3.009-.967-5.582-2.902-7.603-1.93-2.031-4.442-3.065-7.405-3.054-2.963-.01-5.476 1.023-7.405 3.049l.37.355z"/><path d="M300.347 42.798c.517-.907.938-1.063 2.047-1.697 1.114-.633 2.305-.952 3.581-.952 2.355 0 4.159.724 5.405 2.178 1.246 1.449 1.864 3.399 1.864 5.83v11.665h-3.576v-11.118c0-3.525-1.57-5.288-4.706-5.288-1.474 0-2.685.593-3.617 1.768-.932 1.18-1.403 2.548-1.403 4.103v10.536h-3.571v-19.051h3.832l.143 2.026z"/><path d="M299.279 40.772v3.151h.962l.142-.253c.466-.816 1.211-1.53 2.264-2.127 1.043-.593 2.138-.886 3.328-.886 2.254.005 3.88.679 5.02 2.001 1.15 1.342 1.742 3.151 1.742 5.501v11.159h-2.563v-10.612c0-1.834-.405-3.287-1.307-4.3-.897-1.018-2.249-1.499-3.905-1.494-1.611-.005-3.009.674-4.012 1.96-1.003 1.261-1.515 2.761-1.509 4.417v10.029h-2.563v-18.038h2.907v-.507h-.507.507v-.507h-3.921v20.064h4.584v-11.042c.005-1.454.431-2.695 1.297-3.789.851-1.069 1.874-1.565 3.216-1.575 1.479.005 2.482.405 3.151 1.155.669.745 1.049 1.935 1.049 3.627v11.625h4.589v-12.172c0-2.517-.648-4.599-1.986-6.159-1.347-1.58-3.338-2.365-5.79-2.355-1.357-.005-2.644.344-3.829 1.018-1.175.669-2.072 1.504-2.639 2.507l.785.248v-3.151h-.507v.507h-.507z"/></g><path d="M198.973 89.794l6.521 14.156 6.496-14.156h6.547l-13.095 26.94-12.991-26.94h6.521zm44.247 13.975h-18.063c.155 2.07.828 3.718 2.019 4.943 1.19 1.208 2.717 1.812 4.581 1.812 1.449 0 2.648-.345 3.597-1.035.932-.69 1.993-1.967 3.183-3.83l4.917 2.743c-.759 1.294-1.561 2.402-2.407 3.325-.845.923-1.751 1.682-2.717 2.277-.966.595-2.01 1.031-3.131 1.307s-2.338.414-3.649.414c-3.761 0-6.78-1.208-9.058-3.623-2.277-2.433-3.416-5.659-3.416-9.679 0-3.985 1.104-7.212 3.313-9.679 2.226-2.433 5.176-3.649 8.851-3.649 3.709 0 6.642 1.182 8.799 3.545 2.139 2.346 3.209 5.598 3.209 9.756l-.026 1.372zm-5.978-4.762c-.811-3.105-2.769-4.658-5.875-4.658-.707 0-1.372.108-1.993.323-.621.216-1.186.526-1.695.932-.509.405-.945.893-1.307 1.462s-.638 1.216-.828 1.941h11.697zm10.314-9.213h5.823v2.251c1.07-1.121 2.019-1.889 2.847-2.303.845-.431 1.846-.647 3.002-.647 1.535 0 3.14.5 4.813 1.501l-2.666 5.331c-1.104-.794-2.182-1.19-3.235-1.19-3.174 0-4.762 2.398-4.762 7.194v13.069h-5.823v-25.206zm37.674 1.087v7.738c-1.328-1.622-2.519-2.735-3.571-3.338-1.035-.621-2.251-.932-3.649-.932-2.191 0-4.011.768-5.46 2.303-1.449 1.535-2.174 3.459-2.174 5.771 0 2.364.699 4.305 2.096 5.823 1.415 1.518 3.218 2.277 5.409 2.277 1.397 0 2.631-.302 3.701-.906 1.035-.587 2.251-1.725 3.649-3.416v7.686c-2.364 1.225-4.727 1.837-7.091 1.837-3.899 0-7.16-1.259-9.782-3.778-2.622-2.536-3.934-5.685-3.934-9.446s1.328-6.936 3.985-9.523c2.657-2.588 5.918-3.882 9.782-3.882 2.484 0 4.831.595 7.039 1.786zm44.72 3.209l-4.813 2.562c-.759-1.553-1.699-2.329-2.821-2.329-.535 0-.992.177-1.372.531-.38.354-.569.807-.569 1.359 0 .966 1.121 1.924 3.364 2.873 3.088 1.328 5.167 2.553 6.237 3.675 1.07 1.121 1.604 2.631 1.604 4.529 0 2.433-.897 4.468-2.691 6.107-1.743 1.553-3.847 2.329-6.314 2.329-4.227 0-7.22-2.062-8.98-6.185l4.969-2.303c.69 1.208 1.216 1.975 1.579 2.303.707.656 1.553.983 2.536.983 1.967 0 2.95-.897 2.95-2.691 0-1.035-.759-2.001-2.277-2.898-.587-.293-1.173-.578-1.76-.854s-1.182-.561-1.786-.854c-1.691-.828-2.881-1.656-3.571-2.484-.88-1.052-1.32-2.407-1.32-4.063 0-2.191.75-4.003 2.251-5.435 1.535-1.432 3.399-2.148 5.59-2.148 3.226 0 5.624 1.665 7.194 4.995zm11.562 1.139v19.771h-5.823v-19.771h-2.484v-5.435h2.484v-9.239h5.823v9.239h4.529v5.435h-4.529zm-36.911 16.538h-.145c-.582 1.131-1.52 2.058-2.813 2.782-1.293.724-2.764 1.087-4.413 1.087-.938 0-1.916-.132-2.934-.397-1.018-.265-1.956-.707-2.813-1.325-.857-.618-1.568-1.431-2.134-2.438-.566-1.007-.849-2.252-.849-3.736 0-1.908.493-3.427 1.479-4.558.986-1.131 2.255-1.996 3.807-2.597s3.273-.998 5.165-1.193c1.891-.194 3.742-.291 5.553-.291v-.636c0-1.59-.525-2.765-1.576-3.525-1.051-.76-2.304-1.139-3.758-1.139-1.229 0-2.409.283-3.54.848-1.132.565-2.069 1.254-2.813 2.067l-3.007-3.869c1.326-1.343 2.853-2.35 4.583-3.021 1.73-.671 3.484-1.007 5.262-1.007 2.069 0 3.775.318 5.116.954 1.342.636 2.401 1.466 3.176 2.491.776 1.025 1.317 2.173 1.625 3.445.307 1.272.461 2.544.461 3.816v15.476h-5.431v-3.233zm-.097-8.374h-1.309c-.938 0-1.924.044-2.958.132-1.035.088-1.988.283-2.861.583-.873.3-1.6.724-2.182 1.272-.582.548-.873 1.298-.873 2.252 0 .601.121 1.104.364 1.511.242.406.558.733.946.98.388.247.824.424 1.309.53.485.106.97.159 1.455.159 2.004 0 3.524-.583 4.559-1.749 1.035-1.166 1.552-2.756 1.552-4.77v-.901zm-152.709-8.553c0-5.624 1.864-10.455 5.593-14.492 3.713-4.037 8.175-6.056 13.385-6.056 5.148 0 9.563 2.036 13.245 6.107 3.697 4.072 5.546 8.963 5.546 14.673 0 5.745-1.856 10.619-5.569 14.622-3.729 4.02-8.229 6.03-13.502 6.03-4.665 0-8.853-1.786-12.566-5.357-4.087-3.951-6.131-9.127-6.131-15.527zm5.499.078c0 4.417 1.342 8.048 4.025 10.895 2.668 2.847 5.749 4.27 9.243 4.27 3.791 0 6.989-1.449 9.594-4.348 2.605-2.933 3.908-6.504 3.908-10.714 0-4.261-1.287-7.833-3.861-10.714-2.558-2.898-5.725-4.348-9.501-4.348-3.76 0-6.934 1.449-9.524 4.348-2.59 2.864-3.884 6.401-3.884 10.61z" fill="#fff"/><path d="M77 120c-26.046 0-47-20.954-47-47s20.954-47 47-47 47 20.954 47 47-20.954 47-47 47zm0-18.604l3.525-3.525-3.525-13.512-3.525 13.512 3.525 3.525zm-4.504-.196l-1.763 6.659 4.112-4.113-2.35-2.546zm9.008 0l-2.35 2.35 4.112 4.112-1.763-6.462zm3.33 12.141l-7.834-7.833-7.834 7.833c2.546.392 5.092.784 7.834.784 2.741 0 5.288-.196 7.834-.784zm-7.834-81.466c-22.716 0-41.125 18.409-41.125 41.125 0 18.016 11.554 33.291 27.612 38.775l8.813-32.704c-1.959-1.371-3.134-3.721-3.134-6.267 0-4.308 3.525-7.833 7.834-7.833 4.309 0 7.834 3.525 7.834 7.833 0 2.546-1.175 4.7-3.134 6.267l8.813 32.704c16.059-5.484 27.612-20.759 27.612-38.775 0-22.716-18.409-41.125-41.125-41.125zm26.829 61.491c-.979 1.175-2.741 1.567-4.112.587-1.37-.979-1.566-2.741-.587-3.916 0 0 5.287-7.05 5.287-17.037 0-9.987-5.287-17.038-5.287-17.038-.979-1.175-.783-2.938.587-3.916 1.371-.98 3.134-.587 4.112.587.392.391 6.463 8.42 6.463 20.366s-6.07 19.975-6.463 20.366zm-14.295-7.638c-1.175-1.175-.98-3.329.195-4.504 0 0 2.938-3.134 2.938-8.225 0-5.091-2.938-8.029-2.938-8.225-1.175-1.175-1.175-3.134-.195-4.504 1.175-1.371 2.938-1.371 4.113-.196.195.196 4.895 5.091 4.895 12.925 0 7.834-4.7 12.729-4.895 12.925-1.175 1.175-2.938.979-4.113-.196zm-25.067 0c-1.175 1.175-2.938 1.371-4.113.196-.195-.391-4.895-5.091-4.895-12.925 0-7.834 4.7-12.534 4.895-12.925 1.175-1.175 3.134-1.175 4.113.196 1.175 1.175.98 3.329-.195 4.504 0 .196-2.938 3.134-2.938 8.225 0 5.091 2.938 8.225 2.938 8.225 1.175 1.175 1.37 3.134.195 4.504zm-10.183 8.225c-1.371.98-3.134.588-4.113-.587-.392-.391-6.463-8.42-6.463-20.366s6.07-19.975 6.463-20.366c.979-1.175 2.741-1.567 4.113-.587 1.37.979 1.566 2.741.587 3.916 0 0-5.287 7.05-5.287 17.038 0 9.987 5.287 17.037 5.287 17.037.979 1.175.588 2.938-.587 3.916z" fill="#FC7E0F"/></g></svg>