<svg width="397" height="144" viewBox="0 0 397 144" xmlns="http://www.w3.org/2000/svg"><title>soundcloud</title><desc>Created with Sketch.</desc><defs><linearGradient x1="50%" y1="0%" x2="50%" y2="100%" id="a"><stop stop-color="#F0842C" offset="0%"/><stop stop-color="#E54A31" offset="100%"/></linearGradient></defs><g fill="none"><path d="M29.814 142.05c-1.116 0-2.202-.015-3.307-.04-2.045-.059-4.47-.172-6.837-.596-2.232-.402-4.218-1.061-6.062-2.005-1.906-.969-3.622-2.217-5.111-3.72-1.515-1.485-2.758-3.194-3.735-5.107-.947-1.847-1.599-3.83-1.986-6.062-.446-2.462-.56-4.957-.611-6.859-.022-.772-.055-3.34-.055-3.34v-84.51s.033-2.528.055-3.274c.048-1.917.161-4.412.607-6.848.391-2.243 1.039-4.225 1.99-6.076.973-1.917 2.217-3.636 3.713-5.114 1.515-1.515 3.234-2.769 5.129-3.739 1.88-.955 3.859-1.606 6.047-1.99 2.466-.443 4.961-.556 6.863-.604l3.3-.044h337.859l3.34.048c1.877.048 4.372.157 6.797.596 2.206.384 4.196 1.043 6.113 2.005 1.877.962 3.592 2.213 5.092 3.717 1.496 1.485 2.751 3.212 3.742 5.136.944 1.869 1.588 3.852 1.957 6.032.424 2.308.556 4.679.637 6.903.011 1.035.011 2.147.011 3.256.029 1.372.029 2.678.029 3.995v76.564c0 1.328 0 2.627-.029 3.933 0 1.189 0 2.279-.015 3.402-.077 2.155-.209 4.522-.626 6.782-.38 2.243-1.021 4.225-1.975 6.109-.988 1.902-2.239 3.618-3.717 5.07-1.511 1.529-3.227 2.777-5.118 3.739-1.899.966-3.834 1.602-6.102 2.012-2.345.424-4.77.538-6.837.596-1.072.026-2.195.04-3.281.04l-3.966.007-333.912-.015" stroke="#999" stroke-width="3" fill="#000"/><g fill="#F2F2F2"><path d="M185.697 59.929v-27.844h3.581v24.42h12.055v3.424h-15.637"/><path d="M185.697 59.929h.507v-27.337h2.568v24.42h12.055v2.411h-15.13v.507h.507-.507v.507h16.143v-4.437h-12.055v-24.42h-4.594v28.857h.507v-.507"/><path d="M206.303 59.828h3.576v-19.056h-3.576v19.056zm3.576-23.842c-.491.496-1.084.745-1.783.745-.704 0-1.302-.248-1.793-.745-.491-.491-.734-1.084-.734-1.783 0-.704.243-1.302.734-1.793.491-.491 1.089-.734 1.793-.734.699 0 1.292.243 1.783.734.491.491.745 1.089.745 1.793 0 .699-.253 1.292-.745 1.783z"/><path d="M209.879 59.823v-.507h-3.07v-18.038h2.563v18.544h.507v-.507.507h.507v-19.557h-4.589v20.064h4.589v-.507h-.507zm0-23.837l-.36-.355c-.41.405-.846.588-1.423.593-.588-.005-1.023-.187-1.433-.593v-.005c-.405-.41-.583-.846-.588-1.423.005-.588.182-1.023.588-1.433.41-.405.846-.583 1.433-.588.577.005 1.013.182 1.428.588.4.41.588.851.593 1.433-.005.572-.192 1.013-.593 1.423l-.005.005.36.355.36.36c.577-.572.897-1.322.891-2.143.005-.826-.314-1.58-.891-2.153-.572-.577-1.327-.886-2.143-.881-.826-.005-1.575.304-2.148.881-.583.577-.891 1.327-.886 2.153-.005.816.304 1.57.886 2.143l-.005-.005c.572.588 1.327.902 2.153.897.816.005 1.57-.309 2.143-.897v.005l-.36-.36z"/><path d="M223.186 60.446c-2.132 0-3.885-.517-5.273-1.555-1.388-1.033-2.406-2.33-3.049-3.885l3.186-1.322c1.013 2.386 2.735 3.576 5.172 3.576 1.114 0 2.026-.248 2.74-.74.714-.491 1.069-1.14 1.069-1.945 0-1.241-.866-2.087-2.604-2.528l-3.85-.932c-1.221-.309-2.371-.902-3.46-1.773-1.089-.866-1.636-2.041-1.636-3.515 0-1.687.75-3.054 2.239-4.103 1.489-1.054 3.262-1.575 5.308-1.575 1.687 0 3.186.38 4.508 1.15 1.322.76 2.269 1.859 2.837 3.282l-3.105 1.287c-.699-1.687-2.158-2.528-4.361-2.528-1.059 0-1.955.218-2.68.658-.729.441-1.089 1.038-1.089 1.788 0 1.089.846 1.829 2.528 2.219l3.769.891c1.793.415 3.115 1.13 3.971 2.138.856 1.013 1.282 2.158 1.282 3.424 0 1.712-.699 3.14-2.097 4.28-1.403 1.14-3.201 1.707-5.405 1.707"/><path d="M223.186 60.446v-.507c-2.051-.005-3.688-.496-4.969-1.454h-.005c-1.317-.983-2.269-2.203-2.882-3.672l-.466.192.192.466 3.186-1.322-.192-.466-.466.198c1.049 2.528 3.029 3.905 5.638 3.885 1.185 0 2.214-.263 3.029-.831.826-.552 1.297-1.403 1.287-2.36.015-1.525-1.16-2.588-2.983-3.019h-.005l-3.85-.932-.122.491.127-.491c-1.145-.289-2.229-.846-3.272-1.677-.973-.78-1.433-1.768-1.444-3.12.01-1.535.643-2.705 2.021-3.688l.005-.005v.005c1.398-.988 3.054-1.484 5.015-1.484 1.611 0 3.014.36 4.255 1.079 1.231.714 2.087 1.707 2.619 3.039l.471-.192-.192-.466-3.11 1.282.198.471.466-.192c-.76-1.889-2.507-2.867-4.827-2.842-1.13 0-2.122.233-2.943.729-.841.496-1.347 1.302-1.332 2.224-.005 1.413 1.17 2.33 2.918 2.715l3.769.886h.005c1.722.405 2.933 1.079 3.698 1.975.785.937 1.16 1.94 1.16 3.095-.005 1.57-.613 2.816-1.91 3.885-1.302 1.059-2.968 1.591-5.086 1.596v1.013c2.284 0 4.219-.593 5.724-1.824 1.499-1.211 2.295-2.816 2.284-4.67.005-1.383-.476-2.659-1.403-3.748-.947-1.119-2.381-1.874-4.24-2.305l-3.769-.891h-.005c-1.616-.405-2.132-.967-2.132-1.727.01-.577.228-.962.846-1.357.628-.38 1.423-.583 2.416-.583 2.087.02 3.257.729 3.89 2.214l.192.466 3.576-1.474.466-.192-.187-.466c-.608-1.52-1.636-2.72-3.054-3.536-1.403-.816-2.999-1.221-4.761-1.216-2.132-.005-4.022.552-5.602 1.672v-.005c-1.596 1.114-2.462 2.674-2.452 4.518-.005 1.601.618 2.963 1.824 3.915 1.14.907 2.36 1.535 3.657 1.864l3.855.937-.005-.005c1.646.451 2.203 1.079 2.219 2.036-.01.648-.248 1.099-.851 1.53-.608.42-1.408.648-2.452.648-2.264-.025-3.728-1.023-4.706-3.267l-.198-.466-3.652 1.52-.466.192.192.466c.679 1.636 1.763 3.014 3.216 4.098 1.489 1.114 3.368 1.656 5.577 1.656v-.507"/><path d="M243.401 60.137c-1.996 0-3.52-.532-4.569-1.596s-1.57-2.568-1.57-4.508v-9.994h-3.348v-3.267h3.348v-5.835h3.571v5.835h4.67v3.267h-4.67v9.72c0 2.072.861 3.11 2.568 3.11.653 0 1.19-.101 1.636-.309l1.241 3.07c-.775.339-1.732.507-2.877.507"/><path d="M243.401 60.137v-.507c-1.91-.005-3.277-.501-4.204-1.444h-.005c-.937-.947-1.423-2.3-1.423-4.154v-10.5h-3.348v-2.254h3.348v-5.835h2.558v5.835h4.67v2.254h-4.67v10.227c.005 1.099.223 2.001.76 2.654.537.658 1.368.967 2.315.962.704 0 1.322-.111 1.849-.36l-.213-.456-.471.187 1.246 3.07.466-.187-.203-.466c-.689.304-1.58.466-2.674.466v1.013c1.19-.005 2.219-.177 3.08-.552l.456-.198-1.631-4.017-.481.223c-.36.167-.826.263-1.423.263-.76-.005-1.216-.213-1.535-.593-.319-.385-.527-1.038-.522-2.011v-9.214h4.665v-4.28h-4.665v-5.835h-4.589v5.835h-3.348v4.28h3.348v9.487c-.005 2.026.552 3.688 1.717 4.863 1.165 1.185 2.852 1.748 4.929 1.748v-.507"/><path d="M264.052 48.006c-.081-1.089-.583-2.127-1.504-3.11-.917-.988-2.284-1.479-4.098-1.479-1.327 0-2.472.415-3.444 1.246-.967.826-1.636 1.94-2.001 3.343h11.047zm-5.136 12.44c-2.877 0-5.217-.957-7.02-2.877s-2.705-4.341-2.705-7.269c0-2.776.876-5.162 2.629-7.157 1.748-1.996 3.981-2.994 6.706-2.994 2.821 0 5.086.922 6.782 2.761 1.702 1.839 2.548 4.306 2.548 7.39l-.041.658h-15.044c.101 1.92.745 3.439 1.925 4.549 1.18 1.114 2.563 1.672 4.138 1.672 2.568 0 4.306-1.084 5.217-3.267l3.186 1.327c-.628 1.479-1.646 2.715-3.075 3.713-1.428.998-3.171 1.494-5.248 1.494z"/><path d="M264.554 47.97c-.086-1.226-.658-2.381-1.636-3.424-1.038-1.109-2.568-1.636-4.468-1.636-1.428 0-2.715.461-3.774 1.368-1.054.897-1.778 2.117-2.163 3.601l-.167.633h12.248l-.041-.542-.501.035-10.561.127c.35-1.317.957-2.33 1.844-3.085.886-.755 1.894-1.119 3.115-1.124 1.727.005 2.928.461 3.728 1.317.861.922 1.297 1.844 1.368 2.801l.507-.035.501-.035zm-5.638 11.969c-2.771-.005-4.939-.902-6.651-2.72-1.712-1.824-2.563-4.093-2.568-6.919.005-2.669.831-4.913 2.502-6.823 1.672-1.894 3.728-2.816 6.327-2.821 2.715.005 4.807.866 6.413 2.598 1.601 1.732 2.411 4.047 2.411 7.046h.507l-.507-.03-.01.182h-15.1l.025.532c.106 2.016.795 3.682 2.082 4.893 1.261 1.195 2.791 1.813 4.488 1.808 2.71.025 4.726-1.226 5.683-3.576l-.466-.198-.198.471 3.186 1.322.198-.466-.466-.198c-.588 1.388-1.54 2.543-2.897 3.495-1.332.927-2.963 1.398-4.959 1.403v1.013c2.153 0 4.017-.522 5.536-1.585 1.494-1.049 2.588-2.36 3.252-3.936l.198-.466-3.657-1.52-.466-.192-.198.466c-.861 2.001-2.315 2.928-4.746 2.953-1.459-.005-2.69-.496-3.794-1.535-1.074-1.013-1.661-1.844-1.763-3.672h-.507 15.52l.071-1.135c.005-3.206-.876-5.815-2.685-7.765-1.788-1.945-4.219-2.933-7.152-2.923-2.847-.01-5.258 1.064-7.086 3.166-1.834 2.082-2.761 4.609-2.756 7.492-.005 3.029.947 5.602 2.842 7.613 1.894 2.026 4.402 3.044 7.39 3.039v-1.014z"/><path d="M276.583 40.761l.083 2.218c.522-.907.932-1.245 2.041-1.878 1.114-.633 2.305-.952 3.581-.952 2.355 0 4.159.724 5.405 2.178 1.246 1.449 1.864 3.399 1.864 5.83v11.665h-3.576v-11.118c0-3.525-1.57-5.288-4.706-5.288-1.474 0-2.685.593-3.617 1.768-.932 1.18-1.403 2.548-1.403 4.103v10.536h-3.571v-19.051h3.414"/><path d="M275.591 40.772v3.151h.962l.147-.253c.461-.816 1.206-1.53 2.259-2.127 1.043-.593 2.138-.886 3.328-.886 2.259.005 3.88.679 5.02 2.001 1.15 1.342 1.742 3.151 1.742 5.501v11.159h-2.563v-10.612c0-1.834-.405-3.287-1.307-4.3-.897-1.018-2.249-1.499-3.905-1.494-1.611-.005-3.009.674-4.012 1.96-1.003 1.261-1.515 2.761-1.509 4.417v10.029h-2.563v-18.038h2.907v-.507h-.507.507v-.507h-3.921v20.064h4.589v-11.042c0-1.454.425-2.695 1.292-3.789.851-1.069 1.879-1.565 3.216-1.575 1.479.005 2.482.405 3.151 1.155.669.745 1.049 1.935 1.049 3.627v11.625h4.589v-12.172c.005-2.517-.648-4.599-1.986-6.159-1.347-1.58-3.338-2.365-5.79-2.355-1.357-.005-2.644.344-3.829 1.018-1.175.669-2.072 1.504-2.639 2.507l.436.248h.35v-3.151h-.507v.507h-.507z"/><path d="M309.757 55.295c1.236 1.261 2.69 1.884 4.376 1.884 1.687 0 3.146-.623 4.376-1.884 1.226-1.256 1.849-2.923 1.849-4.994 0-2.077-.623-3.738-1.849-4.999-1.231-1.256-2.69-1.884-4.376-1.884-1.687 0-3.14.628-4.376 1.884-1.231 1.261-1.844 2.923-1.844 4.999 0 2.072.613 3.738 1.844 4.994zm-2.659-12.248c1.839-1.93 4.184-2.897 7.036-2.897 2.852 0 5.197.967 7.041 2.897 1.839 1.93 2.761 4.351 2.761 7.254 0 2.902-.922 5.319-2.761 7.248-1.844 1.93-4.189 2.897-7.041 2.897-2.852 0-5.197-.967-7.036-2.897-1.849-1.93-2.766-4.346-2.766-7.248s.917-5.324 2.766-7.254z"/><path d="M309.757 55.295l-.365.355c1.312 1.347 2.928 2.041 4.741 2.036 1.813.005 3.429-.689 4.736-2.036 1.332-1.357 2.001-3.176 1.996-5.349.005-2.173-.664-3.997-1.996-5.354-1.307-1.342-2.923-2.041-4.736-2.036-1.813-.005-3.429.694-4.741 2.036-1.332 1.357-1.991 3.181-1.986 5.354-.005 2.168.653 3.991 1.986 5.349l.005.005-.005-.005.365-.355.36-.355c-1.124-1.16-1.692-2.664-1.697-4.64.005-1.981.572-3.485 1.697-4.645 1.16-1.17 2.457-1.727 4.017-1.732 1.56.005 2.862.562 4.012 1.732 1.13 1.16 1.702 2.664 1.707 4.645-.005 1.975-.577 3.48-1.707 4.64-1.15 1.175-2.452 1.727-4.012 1.732-1.56-.005-2.857-.557-4.017-1.732l-.005-.005.005.005-.36.355zm-2.659-12.248l.365.35c1.753-1.834 3.931-2.735 6.671-2.74 2.735.005 4.918.907 6.676 2.74v-.005c1.748 1.844 2.614 4.113 2.619 6.909-.005 2.796-.871 5.06-2.619 6.899-1.758 1.834-3.936 2.735-6.676 2.74-2.74-.005-4.918-.907-6.671-2.74-1.753-1.839-2.619-4.103-2.624-6.899.005-2.796.871-5.065 2.624-6.904l-.734-.704c-1.935 2.026-2.907 4.599-2.902 7.608-.005 3.004.967 5.577 2.902 7.598 1.93 2.031 4.442 3.059 7.405 3.054 2.963.005 5.476-1.023 7.405-3.054 1.935-2.021 2.907-4.594 2.902-7.598.005-3.009-.967-5.582-2.902-7.603-1.93-2.031-4.442-3.065-7.405-3.054-2.963-.01-5.476 1.023-7.405 3.049l.37.355z"/><path d="M332.347 42.798c.517-.907.938-1.063 2.047-1.697 1.114-.633 2.305-.952 3.581-.952 2.355 0 4.159.724 5.405 2.178 1.246 1.449 1.864 3.399 1.864 5.83v11.665h-3.576v-11.118c0-3.525-1.57-5.288-4.706-5.288-1.474 0-2.685.593-3.617 1.768-.932 1.18-1.403 2.548-1.403 4.103v10.536h-3.571v-19.051h3.832l.143 2.026z"/><path d="M331.279 40.772v3.151h.962l.142-.253c.466-.816 1.211-1.53 2.264-2.127 1.043-.593 2.138-.886 3.328-.886 2.254.005 3.88.679 5.02 2.001 1.15 1.342 1.742 3.151 1.742 5.501v11.159h-2.563v-10.612c0-1.834-.405-3.287-1.307-4.3-.897-1.018-2.249-1.499-3.905-1.494-1.611-.005-3.009.674-4.012 1.96-1.003 1.261-1.515 2.761-1.509 4.417v10.029h-2.563v-18.038h2.907v-.507h-.507.507v-.507h-3.921v20.064h4.584v-11.042c.005-1.454.431-2.695 1.297-3.789.851-1.069 1.874-1.565 3.216-1.575 1.479.005 2.482.405 3.151 1.155.669.745 1.049 1.935 1.049 3.627v11.625h4.589v-12.172c0-2.517-.648-4.599-1.986-6.159-1.347-1.58-3.338-2.365-5.79-2.355-1.357-.005-2.644.344-3.829 1.018-1.175.669-2.072 1.504-2.639 2.507l.785.248v-3.151h-.507v.507h-.507z"/></g><g fill="#E94022"><path d="M48.372 101.983c-5.45-1.253-6.925-1.923-6.925-4.036 0-1.49 1.229-3.031 4.91-3.031 3.146 0 5.603 1.249 7.811 3.46l4.959-4.706c-3.243-3.314-7.17-5.285-12.52-5.285-6.784 0-12.282 3.748-12.282 9.853 0 6.629 4.423 8.599 10.755 10.038 6.481 1.438 7.662 2.404 7.662 4.568 0 2.546-1.921 3.653-5.99 3.653-3.291 0-6.385-1.103-8.794-3.85l-4.959 4.327c2.602 3.748 7.617 6.101 13.358 6.101 9.386 0 13.511-4.323 13.511-10.712 0-7.307-6.042-9.131-11.497-10.381z" id="Path"/><path d="M80.01 88.387c9.378 0 14.933 7.11 14.933 17.344 0 10.235-5.555 17.34-14.933 17.34s-14.925-7.106-14.925-17.34c0-10.235 5.547-17.344 14.925-17.344zm0 28.013c5.555 0 7.859-4.662 7.859-10.664 0-6.006-2.304-10.668-7.859-10.668-5.547 0-7.859 4.662-7.859 10.668 0 6.002 2.312 10.664 7.859 10.664z" id="Combined-Shape"/><path d="M115.619 116.498c-4.371 0-7.021-3.413-7.021-8.792v-18.795h-6.88v18.889c0 9.797 5.603 15.275 13.901 15.275 8.741 0 13.95-5.624 13.95-15.37v-18.795h-6.876v18.889c0 5.379-2.707 8.698-7.074 8.698zM159.326 110.488c-.443-.867-1.571-2.546-2.405-3.799l-12.185-17.782h-6.578v33.64h6.78v-14.802c0-1.876-.097-6.101-.097-7.35.439.863 1.575 2.546 2.405 3.799l12.625 18.353h6.139v-33.64h-6.78v14.231c0 1.876.097 6.101.097 7.35z" id="Path"/><path d="M185.602 88.911c9.821 0 17.092 4.516 17.092 16.82 0 11.819-8.745 16.82-17.587 16.82h-10.26v-33.64h10.755zm-.495 27.106c7.223 0 10.518-4.134 10.518-10.286 0-6.873-2.997-10.282-10.268-10.282h-3.633v20.568h3.384z" id="Combined-Shape"/><path d="M223.959 95.063c3.094 0 5.059 1.348 6.288 3.653l6.385-2.881c-2.163-4.371-6.095-7.449-12.576-7.449-8.979 0-15.271 7.11-15.271 17.344 0 10.617 6.038 17.34 15.025 17.34 6.24 0 10.365-2.834 12.721-7.59l-5.793-3.366c-1.817 2.983-3.638 4.28-6.731 4.28-5.156 0-8.153-4.615-8.153-10.664-.004-6.243 2.953-10.668 8.105-10.668zM249.462 88.911h-6.876v33.64h20.665v-6.637h-13.789z" id="Path"/><path d="M281.365 88.387c9.378 0 14.929 7.11 14.929 17.344 0 10.235-5.551 17.34-14.929 17.34-9.386 0-14.933-7.106-14.933-17.34 0-10.235 5.547-17.344 14.933-17.344zm0 28.013c5.543 0 7.851-4.662 7.851-10.664 0-6.006-2.308-10.668-7.851-10.668-5.555 0-7.859 4.662-7.859 10.668 0 6.002 2.304 10.664 7.859 10.664z" id="Combined-Shape"/><path d="M324.041 107.8c0 5.379-2.695 8.698-7.066 8.698-4.379 0-7.025-3.413-7.025-8.792v-18.795h-6.876v18.889c0 9.797 5.599 15.275 13.901 15.275 8.741 0 13.946-5.624 13.946-15.37v-18.795h-6.88v18.889z" id="Path"/><path d="M350.269 88.911c9.825 0 17.092 4.516 17.092 16.82 0 11.819-8.737 16.82-17.583 16.82h-10.26v-33.64h10.751zm-.491 27.106c7.219 0 10.51-4.134 10.51-10.286 0-6.873-2.997-10.282-10.26-10.282h-3.638v20.568h3.388z"/></g><g fill="url(#a)"><path d="M37.415 49.462c-.261 0-.468.202-.501.489l-.914 6.942.914 6.823c.034.288.241.488.501.488.253 0 .458-.199.499-.485l1.083-6.825-1.083-6.944c-.039-.286-.247-.488-.499-.488zM42.555 45.669c-.043-.298-.257-.504-.52-.504-.265 0-.484.212-.52.504l-1.228 11.224 1.228 10.976c.035.294.254.507.52.507.262 0 .476-.207.519-.504l1.398-10.978-1.397-11.224zM61.915 35.316c-.504 0-.921.413-.945.937l-.978 20.651.978 13.345c.026.522.441.933.945.933.501 0 .917-.413.946-.935l1.106-13.343-1.106-20.651c-.03-.524-.445-.937-.946-.937zM51.895 42.493c-.387 0-.703.309-.734.722l-1.102 13.683 1.102 13.238c.03.41.347.719.734.719.383 0 .699-.309.733-.719l1.253-13.238-1.253-13.685c-.034-.41-.349-.719-.733-.719zM72.098 71.18c.625 0 1.133-.504 1.159-1.149l.96-13.121-.958-27.493c-.026-.645-.534-1.149-1.159-1.149-.63 0-1.14.505-1.16 1.151l-.851 27.491.851 13.126c.02.64.53 1.145 1.159 1.145zM92.945 71.242c.86 0 1.57-.708 1.586-1.579l.669-12.745-.669-31.753c-.015-.87-.726-1.579-1.586-1.579-.862 0-1.573.708-1.586 1.581l-.598 31.741c0 .02.598 12.763.598 12.763.013.863.726 1.571 1.586 1.571zM82.442 71.192c.749 0 1.352-.601 1.372-1.367l.815-12.913-.816-27.692c-.02-.766-.624-1.366-1.372-1.366-.754 0-1.358.599-1.374 1.366l-.724 27.694.726 12.919c.016.758.62 1.359 1.374 1.359zM56.886 71.071c.445 0 .805-.356.839-.825l1.18-13.348-1.18-12.698c-.032-.469-.392-.823-.839-.823-.452 0-.812.356-.84.828l-1.039 12.692 1.039 13.347c.03.47.388.827.84.827zM46.945 70.34c.325 0 .589-.257.626-.612l1.325-12.833-1.324-13.317c-.039-.356-.302-.613-.628-.613-.329 0-.593.258-.626.613l-1.167 13.317 1.167 12.831c.032.356.296.614.626.614zM87.673 28.759c-.813 0-1.465.647-1.481 1.474l-.661 26.681.661 12.839c.016.817.667 1.464 1.481 1.464.812 0 1.46-.645 1.478-1.473l.742-12.828-.742-26.685c-.019-.825-.667-1.472-1.478-1.472zM66.988 71.207c.562 0 1.026-.458 1.052-1.043l1.032-13.257-1.032-25.374c-.028-.586-.491-1.043-1.052-1.043-.567 0-1.03.458-1.054 1.043l-.914 25.374.915 13.262c.023.579.485 1.038 1.052 1.038zM79.402 56.911l-.887-28.419c-.022-.706-.578-1.259-1.265-1.259-.691 0-1.247.552-1.266 1.259l-.788 28.418.789 13.044c.019.699.575 1.251 1.265 1.251.688 0 1.242-.552 1.265-1.255l.887-13.039zM145.609 40.53c-2.106 0-4.116.426-5.946 1.194-1.223-13.855-12.841-24.723-27.013-24.723-3.468 0-6.848.683-9.833 1.837-1.16.449-1.469.911-1.48 1.808v48.79c.012.941.742 1.724 1.66 1.817.039.004 42.337.026 42.612.026 8.489 0 15.372-6.883 15.372-15.374s-6.882-15.375-15.371-15.375zM98.194 20.602c-.923 0-1.681.758-1.695 1.69l-.694 34.63.695 12.569c.012.918.77 1.675 1.694 1.675.921 0 1.679-.757 1.692-1.688l.754-12.555-.754-34.633c-.013-.929-.772-1.687-1.692-1.687z"/></g></g></svg>