<svg width="529" height="144" viewBox="0 0 529 144" xmlns="http://www.w3.org/2000/svg"><title>stitcher</title><desc>Created with Sketch.</desc><g fill-rule="nonzero" fill="none"><path d="M526.661 128.133c0 7.751-6.762 14.034-15.104 14.034h-494.756c-8.352.009-15.13-6.274-15.14-14.034v-111.914c.01-7.763 6.785-14.051 15.14-14.051h494.738c8.352 0 15.122 6.291 15.122 14.051v111.914z" id="Shape" stroke="#999" stroke-width="3" fill="#010101"/><path d="M56.201 103.022c-8.557 0-17.115 0-25.633.089-1.282 0-1.055-.72-1.055-1.449v-59.172c0-.769 0-1.291 1.065-1.282 8.557.059 17.124.059 25.633.079.468.6.671 1.366.562 2.12v57.446c.111.771-.095 1.554-.572 2.169z" id="Shape" fill="#FCD902"/><path d="M77.043 41.287h12.678c.463.641.079 1.252-.099 1.853-5.817 19.155-11.732 38.301-17.529 57.446-.125.919-.56 1.767-1.232 2.406h-5.56c-.386-.464-.568-1.066-.503-1.666v-22.596c.001-.332.044-.663.128-.986 1.863-2.8 2.415-6.093 3.382-9.218 2.593-8.36 5.176-16.76 7.68-25.13.138-.792.505-1.524 1.055-2.11z" id="Shape" fill="#EE4424"/><path d="M70.861 103.012l18.86-61.725h10.085c.404.513.148 1.035 0 1.548-3.017 10.115-6.172 20.191-9.228 30.296-2.632 8.705-5.334 17.391-7.976 26.086-.404 1.321-.532 2.79-1.666 3.805l-10.076-.01z" id="Shape" fill="#F04A25"/><path d="M65.34 77.35v25.633h-9.139v-61.735h9.05c.496.587.712 1.36.592 2.12v31.774c.065.77-.11 1.542-.503 2.208z" id="Shape" fill="#F78F20"/><path d="M176.654 72.48v-47.479c0-1.499.246-2.06 1.903-1.972 3.243.148 3.243 0 3.243 3.372v93.815c0 1.37-.237 1.853-1.735 1.804-3.401-.128-3.411 0-3.411-3.51v-46.03z" id="Shape" fill="#FCFCFC"/><path d="M146.349 41.287h8.143c.444.661-.079 1.144-.365 1.617-7.088 11.83-14.147 23.661-21.314 35.491-4.584 7.542-9.08 15.133-13.635 22.675-.351.744-.844 1.414-1.449 1.972h-8.133c-.651-.986.177-1.646.582-2.327 4.305-7.229 8.616-14.426 12.935-21.59 7.072-11.791 14.147-23.579 21.226-35.363.532-.927.868-2.041 2.011-2.475z" id="Shape" fill="#2FB3E7"/><path d="M80.947 103.012l18.869-61.725h6.526c.487.599.58 1.428.237 2.12-.505.715-.872 1.517-1.084 2.366-3.805 12.599-7.7 25.179-11.535 37.769-1.735 5.698-3.529 11.387-5.205 17.105-.124.862-.463 1.679-.986 2.376l-6.822-.01z" id="Shape" fill="#F04E27"/><path d="M106.293 43.515l.059-2.208h21.462c.493.838-.108 1.459-.473 2.07-6.46 10.7-12.908 21.406-19.343 32.12-.534.752-.842 1.641-.887 2.563 0 4.545-.059 9.09.049 13.635v5.56s.523 3.943-.483 5.757h-.306c-.73-.749-.562-1.715-.562-2.613v-16.523c0-7.374-.099-14.788 0-22.113.035-.541.035-1.085 0-1.627-.089-4.811 0-9.622 0-14.433-.07-.762.099-1.527.483-2.189z" id="Shape" fill="#1FABE2"/><path d="M106.668 91.339v-13.644c.001-.642.189-1.269.542-1.804 6.658-10.976 13.296-21.965 19.914-32.967.272-.524.506-1.069.7-1.627h9.109c.463.986-.315 1.528-.69 2.169-7.229 12.087-14.46 24.17-21.689 36.25-2.06 3.441-4.111 6.901-6.201 10.302-.434.601-.68 1.439-1.686 1.321z" id="Shape" fill="#24AEE4"/><path d="M227.979 75.398v9.76c-.453.406-1.068.581-1.666.473-5.117-.493-10.263-.7-15.38-1.114-3.72-.303-7.446-.552-11.18-.749-1.972-.099-3.874-.444-5.836-.384-.497.035-.985-.145-1.341-.493v-10.085c.542-.513 1.193-.375 1.844-.345 7.276.404 14.542 1.055 21.817 1.469 3.234.187 6.457.542 9.691.651.771-.042 1.521.257 2.051.818z" id="Shape" fill="#D8DC5E"/><path d="M227.979 94.593c0 2.484 0 4.929.079 7.463 0 .808-.168 1.134-1.065 1.134h-33.441c-.73 0-1.075-.138-1.055-.986.059-3.411.059-6.812.079-10.223.525-.292 1.143-.373 1.725-.227 6.043.325 12.077.799 18.12 1.232 3.825.276 7.66.552 11.485.759 1.4.079 2.849.02 4.072.848z" id="Shape" fill="#E3E466"/><path d="M128.17 103.022h-5.915c-.276-.789.237-1.351.592-1.972 11.758-19.54 23.52-39.083 35.284-58.629.224-.434.536-.817.917-1.124h5.531c.483.986-.246 1.646-.661 2.337-9.031 14.965-18.044 29.948-27.042 44.946-2.898 4.821-5.748 9.701-8.705 14.443z" id="Shape" fill="#3EB9EB"/><path d="M227.979 94.593c-5.58-.424-11.15-.868-16.76-1.262-1.775-.128-3.549-.168-5.324-.325-3.943-.355-7.956-.473-11.929-.71-.481-.064-.955-.166-1.42-.306v-9.109c5.008 0 9.977.552 14.965.986 3.943.306 7.887.444 11.752.69 2.898.187 5.787.424 8.676.641.027 3.122.039 6.253.039 9.395z" id="Shape" fill="#DDE062"/><path d="M106.658 103.002v-5.807c3.51-5.215 6.576-10.716 9.859-16.099 7.887-13.046 15.722-26.106 23.503-39.178.14-.231.31-.443.503-.631h5.856c-3.207 5.317-6.415 10.631-9.622 15.941-7.039 11.666-14.055 23.332-21.048 34.998-1.972 3.243-3.874 6.487-5.836 9.721-.2.321-.3.696-.286 1.075l-2.928-.02z" id="Shape" fill="#27B0E5"/><path d="M139.527 103.022h-6.517c-.503-1.163.365-1.972.858-2.78 3.024-5.067 6.066-10.122 9.129-15.163 6.901-11.357 13.802-22.675 20.496-34.101.434-.73.641-1.972 1.972-1.607v10.746c-3.401 6.043-7.088 11.919-10.628 17.884-4.742 7.966-9.573 15.872-14.285 23.848-.205.492-.565.904-1.025 1.173z" id="Shape" fill="#52BEED"/><path d="M227.979 75.398l-8.193-.651-16.76-1.282c-1.558-.118-3.105-.089-4.673-.266-1.913-.217-3.874-.138-5.797-.404v-9.109c.502-.432 1.174-.61 1.824-.483 5.067.473 10.145.749 15.222 1.124 3.727.276 7.443.572 11.18.759 1.972.099 3.874.444 5.836.384.497-.035.985.144 1.341.493l.02 9.435z" id="Shape" fill="#D1D85A"/><path d="M165.514 49.322c-.897 0-1.104.848-1.43 1.4-3.529 5.915-6.98 11.83-10.509 17.647-5.757 9.563-11.564 19.086-17.312 28.659-1.163 1.972-2.573 3.746-3.243 5.915h-4.929c.227-1.863 1.528-3.194 2.425-4.703 8.728-14.564 17.476-29.132 26.244-43.703l6.901-11.347c.327-.616.616-1.252.868-1.903.769-.207 1.035.069.986.877.01 2.396.02 4.801 0 7.157z" id="Shape" fill="#47BBEC"/><path d="M159.037 41.287c-1.213 3.027-3.155 5.649-4.801 8.419-5.235 8.814-10.578 17.558-15.863 26.342-5.035 8.367-10.056 16.743-15.064 25.13-.365.601-.69 1.222-.986 1.834h-4.604c1.354-2.756 2.889-5.421 4.594-7.976 6.533-10.93 13.085-21.847 19.658-32.75 4.062-6.756 8.117-13.513 12.166-20.269.119-.236.222-.479.306-.73h4.594z" id="Shape" fill="#36B6E9"/><path d="M106.293 43.515v16.602c-1.903 6.152-3.746 12.313-5.629 18.465-2.412 7.887-4.814 15.751-7.207 23.592-.083.314-.243.601-.463.838h-5.245c.384-2.355 1.002-4.667 1.844-6.901 3.49-11.535 7.069-23.04 10.598-34.555 1.676-5.472 3.303-10.963 4.929-16.434.276-.592.256-1.43 1.173-1.607z" id="Shape" fill="#F0532A"/><path d="M192.586 53.6v-7.808c1.688-.354 3.428-.384 5.127-.089 5.659.434 11.328.808 16.986 1.193 3.618.246 7.226.572 10.845.739.877-.051 1.742.219 2.435.759v7.483c-.502.432-1.174.61-1.824.483-5.176-.483-10.361-.759-15.547-1.134-5.186-.375-10.578-.759-15.872-1.094-.758.1-1.525-.091-2.149-.532z" id="Shape" fill="#C6D053"/><path d="M92.994 103.012c-.079-2.06.927-3.865 1.489-5.757 2.958-9.809 5.974-19.569 8.971-29.349.582-1.903 1.114-3.825 1.715-5.718.237-.749.335-1.617 1.134-2.07v23.75c-1.587 5.649-3.451 11.209-5.087 16.839-.121.858-.488 1.662-1.055 2.317l-7.167-.01z" id="Shape" fill="#F1592D"/><path d="M65.34 77.35v-36.063h11.702c-1.232 4.19-2.455 8.38-3.717 12.56l-6.694 21.985c-.149.69-.634 1.26-1.291 1.518z" id="Shape" fill="#EF4124"/><path d="M139.527 103.022c4.111-7.424 8.666-14.571 12.974-21.876 3.707-6.27 7.493-12.501 11.249-18.731.384-.897.988-1.683 1.755-2.287v9.435c-2.435 4.663-5.304 9.07-7.995 13.585-3.635 6.1-7.286 12.185-10.953 18.258-.295.707-.833 1.284-1.518 1.627l-5.511-.01z" id="Shape" fill="#60C2EE"/><path d="M140.493 41.287c-.256 1.913-1.597 3.283-2.524 4.831-6.674 11.229-13.427 22.419-20.151 33.618-3.286 5.508-6.573 11.022-9.859 16.543-.221.51-.7.86-1.252.917v-5.856c1.755-1.666 2.662-3.943 3.874-5.915 8.439-13.973 16.842-27.979 25.209-42.018.414-.69.749-1.42 1.124-2.129l3.579.01z" id="Shape" fill="#27B0E5"/><path d="M227.979 48.395l-16.405-1.262c-1.824-.138-3.648-.128-5.481-.306-3.943-.394-7.956-.483-11.929-.72-.532-.068-1.06-.174-1.577-.315-.276-4.338-.276-4.338 3.943-4.338h29.921c1.272 0 1.696.315 1.607 1.607-.118 1.755-.059 3.549-.079 5.334z" id="Shape" fill="#C2CD50"/><path d="M227.979 65.963c-6.507-.108-12.984-.759-19.461-1.272-3.746-.296-7.512-.493-11.268-.661-1.558-.069-3.086-.552-4.663-.335v-5.205c.542-.513 1.193-.375 1.844-.335 7.276.414 14.532 1.055 21.797 1.469 3.234.187 6.457.503 9.691.67.769-.021 1.514.266 2.07.799-.007 1.617-.01 3.241-.01 4.87z" id="Shape" fill="#CED658"/><path d="M227.979 61.083c-4.772-.444-9.553-.69-14.325-.986-6.221-.434-12.442-.986-18.672-1.272-.786-.183-1.589-.286-2.396-.306v-4.929c4.929.059 9.76.532 14.64.986 3.943.325 7.838.444 11.752.69 2.958.187 6.004.424 9.001.641v5.176z" id="Shape" fill="#CAD355"/><path d="M145.057 103.022l10.588-17.588c2.958-4.988 5.964-9.997 8.971-14.975.262-.337.563-.641.897-.907v8.459c-4.338 7.157-8.616 14.354-12.964 21.502-.601 1.27-1.374 2.45-2.297 3.51h-5.196z" id="Shape" fill="#6DC5EE"/><path d="M172.662 71.996v-30.246s.118-.513.473-.503c.355.01.68 0 .7.453v60.67s-.049.739-.592.759c-.542.02-.621-.286-.601-.71v-1.134c.013-9.78.02-19.543.02-29.29zm12.235.158v-30.246s.168-.68.661-.68.532.394.532.779v60.503s-.108.621-.542.611c-.434-.01-.631-.108-.641-.532v-1.301c-.007-9.721-.01-19.431-.01-29.132z" id="Shape" fill="#EAE9E9"/><path d="M150.253 103.022c1.232-3.066 3.214-5.708 4.87-8.538l8.873-14.788c.343-.672.848-1.248 1.469-1.676v4.821c-3.707 6.329-7.562 12.58-11.298 18.899-.248.472-.583.893-.986 1.242l-2.928.039z" id="Shape" fill="#76C7EE"/><path d="M100.151 103.012c.868-3.943 2.258-7.64 3.352-11.475.601-2.129 1.321-4.22 1.972-6.329.158-.493.187-1.094.789-1.351l.059 19.136-6.172.02z" id="Shape" fill="#F15E30"/><path d="M160.703 103.022h-4.555c-.513-.601-.138-1.124.168-1.627 2.531-4.279 5.087-8.55 7.67-12.816.345-.562.661-1.301 1.568-1.173v7.483c-1.434 2.816-3.055 5.533-4.85 8.133z" id="Shape" fill="#88CBEE"/><path d="M165.514 87.445c-1.469 1.203-2.11 2.958-3.066 4.525-2.031 3.313-4.022 6.655-6.043 9.977-.201.321-.301.696-.286 1.075h-2.958c1.114-2.701 2.879-5.038 4.318-7.552 2.189-3.835 4.515-7.591 6.812-11.367.286-.473.493-1.114 1.203-1.213l.02 4.555z" id="Shape" fill="#7EC9EE"/><path d="M160.703 103.022c1.216-2.917 2.846-5.643 4.841-8.094 0 2.415 0 4.831.079 7.246 0 .69-.177.986-.897.927-1.37-.069-2.721-.059-4.022-.079z" id="Shape" fill="#95CEEF"/><path d="M404.328 95.084v-15.774c0-.838.217-1.075 1.055-1.045 1.844.069 3.687.069 5.521 0 .887 0 1.163.197 1.144 1.124-.059 3.598 0 7.207 0 10.845 0 .769.177.986.986.986 4.207-.039 8.409-.039 12.609 0 .779 0 .907-.237.907-.986v-10.933c0-.828.187-1.084 1.045-1.055 1.922.069 3.845 0 5.767 0 .68 0 .887.197.887.887v31.824c0 .739-.207.986-.986.986-1.922 0-3.845-.059-5.767 0-.789 0-.986-.207-.986-.986v-11.89c0-.799-.227-.986-.986-.986h-12.491c-.887 0-.986.286-.986 1.084v11.653c0 .917-.246 1.163-1.144 1.124-1.844-.069-3.687-.069-5.521 0-.828 0-1.065-.187-1.065-1.045.03-5.245.01-10.529.01-15.813zm38.754.069v-15.616c0-.887.138-1.242 1.153-1.232 6.928.052 13.854.052 20.782 0 .986 0 1.144.296 1.104 1.163-.069 1.479-.069 2.958 0 4.446 0 .887-.187 1.163-1.114 1.153-4.367-.049-8.735 0-13.092 0-.937 0-1.232.227-1.183 1.173.075 1.481.075 2.965 0 4.446 0 .769.227.927.986.917h9.859c.897 0 1.183.227 1.134 1.134-.079 1.479-.059 2.958 0 4.446 0 .749-.227.986-.986.986h-9.967c-.769 0-1.035.177-.986.986.069 1.715.079 3.451 0 5.166 0 .887.276.986 1.075.986h14.295c.917 0 1.173.246 1.124 1.144-.078 1.481-.078 2.965 0 4.446.059.986-.217 1.282-1.232 1.272-6.043-.049-12.097 0-18.14 0-1.242 0-2.484-.049-3.727 0-.868.049-1.055-.276-1.055-1.084-.01-5.442-.03-10.687-.03-15.932zm-171.984-8.34c-1.798-1.619-4.048-2.651-6.448-2.958-1.158-.134-2.331.098-3.352.661-2.258 1.282-2.317 3.648-.118 5.048 1.531.878 3.196 1.499 4.929 1.834 3.105.769 6.073 1.824 8.143 4.436 3.413 4.326 2.673 10.6-1.653 14.012-.361.284-.74.543-1.137.776-4.417 2.701-9.159 2.691-13.989 1.321-2.698-.775-5.157-2.219-7.148-4.2-.434-.414-.463-.651 0-1.104 1.314-1.348 2.583-2.734 3.805-4.16.473-.542.73-.483 1.213 0 1.942 1.985 4.514 3.233 7.276 3.529 1.36.149 2.731-.171 3.884-.907 1.511-.788 2.098-2.651 1.31-4.162-.316-.607-.826-1.092-1.448-1.378-1.866-.972-3.857-1.685-5.915-2.12-3.234-.858-6.063-2.327-7.68-5.412-2.43-4.713-.579-10.504 4.135-12.935.331-.171.672-.322 1.021-.453 5.984-2.277 11.752-1.597 16.868 2.583.651.532.779.917.118 1.587-1.36 1.282-2.563 2.682-3.815 4.003zm113.355-9.336c4.863-.049 9.489 2.099 12.59 5.846.503.611.552.986-.079 1.508-1.311 1.173-2.553 2.425-3.796 3.677-.503.513-.789.631-1.341-.059-3.166-4.316-9.231-5.248-13.546-2.083-2.223 1.631-3.646 4.131-3.914 6.874-.384 3.46.148 6.714 2.622 9.356 3.853 3.853 10.075 3.937 14.029.187.592-.572 1.084-1.656 1.765-1.597.68.059 1.272.986 1.903 1.558.887.799 1.735 1.666 2.672 2.406.739.572.375.986 0 1.42-4.006 4.684-10.143 6.971-16.237 6.053-7.404-.986-12.649-5.6-14.275-12.816-1.784-7.976 1.075-16.326 8.538-20.289 2.809-1.419 5.924-2.12 9.07-2.041zm-35.718.848h13.566c.986 0 1.222.286 1.173 1.213-.069 1.518-.069 3.046 0 4.565 0 .828-.197 1.094-1.055 1.075-2.958-.059-5.846 0-8.764 0-.868 0-1.035.237-1.035 1.065v24.499c0 1.065-.256 1.38-1.321 1.321-1.717-.09-3.439-.09-5.156 0-.986 0-1.262-.187-1.252-1.213.049-8.005 0-16.01 0-24.016 0-1.617 0-1.617-1.656-1.617h-8.163c-.799 0-1.144-.148-1.104-1.035.069-1.597.059-3.204 0-4.801 0-.789.227-.986.986-.986 4.653-.049 9.218-.069 13.782-.069zm-52.251 0h13.684c.789 0 .986.207.986.986-.059 1.637-.059 3.283 0 4.929 0 .73-.168.986-.927.937h-8.873c-.848 0-1.045.217-1.045 1.055v24.647c0 1.045-.296 1.252-1.262 1.203-1.76-.092-3.524-.092-5.284 0-1.055.059-1.203-.315-1.203-1.262v-24.371c0-.986-.197-1.272-1.222-1.242-2.879.079-5.767 0-8.646 0-.749 0-1.055-.138-.986-.986.069-1.637.079-3.283 0-4.929 0-.858.315-.986.986-.986 4.624.03 9.188.02 13.792.02zm30.02 16.878v15.774c0 .858-.237 1.065-1.065 1.035-1.844-.059-3.687 0-5.521 0-.739 0-1.035-.138-1.035-.986v-31.715c0-.838.296-.986 1.035-.986 1.844 0 3.687.059 5.521 0 .828 0 1.075.187 1.065 1.045-.02 5.265 0 10.549 0 15.833zm166.799 4.131c-.325-.582-.365-.858.286-1.301 4.071-2.766 5.807-7.901 4.249-12.57-1.232-4.081-5.186-6.901-9.977-7.029-4.279-.099-8.557-.059-12.816-.118-.769 0-.986.168-.986.986v31.577c0 .739 0 1.163.986 1.114 1.834-.089 3.687-.069 5.521 0 .868 0 .986-.335.986-1.055v-8.281c0-.986-.453-2.287.217-2.859.67-.572 1.834-.089 2.78-.187.758-.125 1.492.336 1.706 1.075 1.686 3.47 3.451 6.901 5.205 10.352.217.434.325.986 1.055.986h7.887c-2.504-4.417-4.772-8.557-7.098-12.688zm-6.31-5.984c-1.627.168-3.273.069-4.929.118-.611 0-.601-.345-.601-.769v-7.335c0-.592.177-.749.749-.73h4.446c2.225.054 3.988 1.896 3.943 4.121.099 2.524-1.291 4.367-3.618 4.604l.01-.01zM252.938 28.148h5.166v23.966h11.633v4.328h-16.76l-.039-28.294zm25.987 2.139c.049 1.6-1.209 2.937-2.809 2.986-1.6.049-2.937-1.209-2.986-2.809-.049-1.6 1.209-2.937 2.809-2.986l.088-.001c1.522-.077 2.819 1.096 2.895 2.618l.003.191zm-5.501 26.155v-20.447h5.166v20.447h-5.166zm10.539-4.781c1.582.936 3.37 1.467 5.205 1.548 2.267 0 3.273-.986 3.273-2.307s-.838-2.06-3.362-2.958c-3.943-1.341-5.629-3.529-5.629-5.915 0-3.608 2.958-6.379 7.729-6.379 1.891-.038 3.764.378 5.462 1.213l-1.045 3.529c-1.321-.748-2.81-1.151-4.328-1.173-1.844 0-2.859.927-2.859 2.179 0 1.252.986 1.893 3.569 2.859 3.736 1.301 5.412 3.194 5.462 6.211 0 3.736-2.898 6.428-8.311 6.428-2.156.038-4.289-.453-6.211-1.43l1.045-3.805zm23.641-20.91v5.245h4.929v3.865h-4.929v9.031c0 2.524.67 3.776 2.642 3.776.663.029 1.328-.041 1.972-.207l.079 3.943c-1.207.388-2.47.572-3.736.542-1.651.088-3.263-.521-4.446-1.676-1.134-1.173-1.637-3.066-1.637-5.748v-9.661h-2.898v-3.865h2.898v-3.815l5.127-1.43zm12.215 16.917c.128 3.697 2.958 5.294 6.3 5.294 1.929.026 3.848-.288 5.669-.927l.759 3.529c-2.269.904-4.696 1.347-7.138 1.301-6.635 0-10.539-4.072-10.539-10.332 0-5.669 3.441-11.002 9.997-11.002s8.814 5.462 8.814 9.947c.007.73-.049 1.459-.168 2.179l-13.694.01zm8.981-3.608c0-1.893-.799-4.998-4.239-4.998-3.194 0-4.535 2.898-4.742 4.998h8.981zm9.031-1.972c0-2.346-.079-4.328-.168-6.093h4.496l.256 3.066h.128c1.406-2.25 3.894-3.592 6.546-3.529 3.569 0 7.266 2.307 7.266 8.774v12.136h-5.166v-11.544c0-2.958-1.094-5.166-3.943-5.166-1.852.044-3.472 1.26-4.032 3.027-.18.526-.267 1.081-.256 1.637v12.047h-5.166l.039-14.354zm52.142 3.943c0 7.512-5.294 10.845-10.499 10.845-5.748 0-10.243-3.943-10.243-10.539 0-6.595 4.407-10.845 10.578-10.845 6.172 0 10.164 4.328 10.164 10.539zm-15.409.207c0 3.943 1.972 6.901 5.077 6.901 2.958 0 4.998-2.859 4.998-7.01 0-3.194-1.43-6.901-4.929-6.901-3.5 0-5.136 3.608-5.136 7.01h-.01zm19.658-4.15c0-2.346-.079-4.328-.168-6.093h4.496l.256 3.066h.128c1.406-2.25 3.894-3.592 6.546-3.529 3.569 0 7.266 2.307 7.266 8.774v12.136h-5.166v-11.544c0-2.958-1.094-5.166-3.943-5.166-1.852.044-3.472 1.26-4.032 3.027-.18.526-.267 1.081-.256 1.637v12.047h-5.166l.039-14.354z" fill="#fff"/></g></svg>